<?xml version="1.0" standalone="no"?>
<!DOCTYPE svg PUBLIC "-//W3C//DTD SVG 20010904//EN"
 "http://www.w3.org/TR/2001/REC-SVG-20010904/DTD/svg10.dtd">
<svg version="1.0" xmlns="http://www.w3.org/2000/svg"
 width="181.000000pt" height="180.000000pt" viewBox="0 0 181.000000 180.000000"
 preserveAspectRatio="xMidYMid meet">

<g transform="translate(0.000000,180.000000) scale(0.100000,-0.100000)"
fill="#000000" stroke="none">
<path d="M884 1628 c-22 -20 -39 -46 -46 -74 -9 -33 -17 -44 -33 -45 -20 0
-20 0 0 -9 23 -9 18 -12 -60 -30 -161 -37 -349 -206 -406 -362 -7 -21 -17 -38
-22 -38 -4 0 -5 6 -2 13 4 6 0 4 -8 -5 -8 -10 -23 -19 -33 -20 -10 0 4 -4 31
-7 43 -5 50 -9 53 -30 l4 -23 -114 4 c-122 5 -159 16 -177 54 -13 28 -13 28
32 9 20 -8 49 -14 64 -14 20 1 23 3 8 6 -11 2 -42 11 -68 20 -27 8 -51 13 -53
10 -7 -7 24 -67 35 -67 4 0 27 -18 51 -40 24 -22 49 -40 57 -40 7 0 13 -4 13
-9 0 -11 138 -5 172 8 23 9 29 7 38 -9 5 -10 6 -21 2 -24 -15 -9 -135 -11
-167 -3 -20 5 -23 4 -10 -1 15 -7 23 -25 32 -78 l12 -69 -5 65 c-3 46 -2 61 6
50 5 -8 10 -30 10 -49 0 -105 73 -262 166 -361 90 -95 167 -137 344 -187 13
-4 13 -5 0 -13 -13 -8 -12 -10 3 -10 14 0 17 -9 17 -48 0 -26 5 -53 12 -60 35
-35 116 8 140 73 6 19 19 35 28 35 13 0 13 2 0 10 -13 8 -13 9 0 13 8 3 42 12
75 22 99 28 175 74 255 155 108 108 180 262 180 386 0 37 4 44 30 56 42 18 37
30 -5 12 -25 -10 -52 -13 -88 -8 -76 8 -80 10 -67 34 9 16 14 18 38 9 36 -14
172 -21 172 -8 0 5 6 9 13 9 14 0 146 120 132 120 -6 0 -16 -9 -22 -19 -18
-28 -74 -41 -180 -41 -93 0 -93 0 -93 25 0 23 3 25 53 26 28 1 44 3 35 6 -9 2
-24 24 -34 49 -9 24 -19 43 -21 40 -2 -2 3 -20 11 -40 29 -69 1 -35 -38 46
-54 115 -159 220 -277 276 -46 22 -102 44 -124 48 -22 3 -47 10 -55 15 -34 19
28 8 105 -20 44 -15 89 -31 100 -34 11 -4 -5 5 -35 20 -30 14 -84 34 -120 43
l-65 16 -3 54 c-2 30 -8 60 -13 66 -21 25 -50 23 -85 -8z m75 -2 c8 -9 11 -92
9 -282 l-3 -269 -23 35 c-29 45 -60 145 -74 237 -13 88 -30 87 -22 0 11 -129
26 -181 85 -297 70 -138 75 -174 30 -264 l-28 -58 -20 41 -20 41 23 0 c33 0
64 34 64 71 0 18 -13 49 -32 76 -40 60 -96 200 -108 277 -13 81 -13 223 1 286
18 84 86 145 118 106z m-192 -230 c13 -42 6 -52 -20 -29 -19 17 -20 17 -15 -4
9 -34 -6 -27 -20 9 -15 40 -10 45 23 24 26 -17 26 -17 16 3 -13 24 -14 31 -3
31 5 0 13 -15 19 -34z m315 -10 c2 -18 -2 -31 -11 -34 -10 -3 -12 0 -8 12 4 9
2 16 -2 16 -5 0 -11 -6 -14 -12 -2 -7 -6 -11 -9 -8 -3 3 1 20 9 39 16 37 30
32 35 -13z m-412 4 c11 0 24 -10 31 -21 9 -18 7 -25 -10 -42 l-21 -21 -21 21
c-15 15 -19 27 -14 40 5 10 8 25 7 33 -1 10 0 11 4 3 3 -7 14 -13 24 -13z
m450 8 c0 -24 -12 -58 -20 -58 -6 0 -7 55 -1 68 4 8 21 0 21 -10z m33 -43 c-9
-19 -20 -35 -25 -35 -11 0 -10 2 8 38 21 44 38 41 17 -3z m47 10 c0 -3 -7 -16
-15 -29 -14 -21 -14 -24 1 -30 9 -4 14 -9 11 -12 -3 -3 -15 -1 -26 6 -21 11
-21 12 -4 40 15 27 33 40 33 25z m-567 -36 c14 -26 15 -30 2 -25 -9 3 -15 0
-15 -8 0 -20 -25 -37 -43 -30 -22 8 -31 42 -17 59 14 17 30 20 30 5 0 -5 -7
-10 -15 -10 -20 0 -19 -14 1 -31 14 -11 18 -10 30 6 17 22 17 32 4 40 -5 3
-10 10 -10 16 0 18 15 8 33 -22z m424 -21 c103 -38 183 -102 238 -189 41 -64
25 -54 -30 19 -59 79 -138 137 -217 160 -32 9 -58 20 -58 25 0 10 2 10 67 -15z
m203 15 c-1 -14 -40 -56 -47 -49 -4 3 4 17 17 31 25 26 30 30 30 18z m-465
-13 c-11 -5 -44 -19 -72 -31 -29 -12 -53 -25 -53 -29 0 -4 21 3 48 16 26 13
59 26 73 29 26 6 27 5 34 -52 4 -32 16 -80 26 -108 24 -63 24 -93 -1 -125
l-20 -25 -28 30 c-15 17 -57 57 -93 90 -45 42 -38 33 24 -30 48 -50 87 -97 87
-105 0 -8 -45 30 -100 85 -65 65 -96 103 -90 109 6 6 10 14 10 20 0 5 -13 -3
-30 -19 -16 -16 -30 -24 -30 -19 0 6 14 23 30 39 25 24 33 27 40 16 6 -10 8
-6 7 11 -2 21 -5 24 -18 17 -23 -12 -98 -98 -116 -132 -8 -16 -17 -26 -20 -23
-3 3 8 27 25 53 51 79 125 141 210 174 48 18 96 26 57 9z m507 -17 c19 -17 25
-39 7 -28 -6 4 -21 -3 -35 -16 -13 -12 -24 -18 -24 -12 0 5 9 18 20 28 15 14
17 21 9 32 -16 19 1 16 23 -4z m-195 -31 c50 -25 58 -33 59 -59 1 -26 -12 -44
-92 -124 l-94 -94 0 159 0 159 35 -6 c19 -3 61 -19 92 -35z m-557 3 c30 -16
42 -32 16 -22 -17 7 -36 -11 -30 -28 8 -21 -16 -28 -35 -11 -28 25 -34 19 -12
-13 11 -15 18 -31 15 -33 -8 -9 -84 14 -79 23 3 4 17 4 30 -1 28 -10 33 1 10
20 -13 11 -13 14 1 27 13 14 17 13 36 -3 21 -19 21 -19 14 1 -24 60 -18 67 34
40z m803 -31 c3 -3 -4 -21 -15 -40 -20 -35 -35 -46 -24 -19 3 8 -4 21 -15 29
-20 14 -20 14 8 24 35 13 38 13 46 6z m-138 -54 c16 -16 24 -30 19 -30 -6 0
-23 14 -39 30 -16 17 -24 30 -19 30 6 0 23 -13 39 -30z m195 -41 c0 -11 -7
-19 -16 -19 -9 0 -23 -8 -31 -17 -12 -16 -13 -15 -8 14 6 27 4 32 -9 27 -26
-10 -18 4 12 20 31 16 52 6 52 -25z m-310 -84 c-61 -61 -96 -90 -98 -81 -5 22
169 199 182 186 7 -7 -20 -41 -84 -105z m-625 85 c17 -7 17 -9 3 -9 -18 -1
-22 -12 -18 -41 1 -9 -10 -4 -29 14 -17 16 -28 33 -25 38 7 10 43 9 69 -2z
m240 -100 c87 -86 106 -115 89 -133 -13 -13 -63 24 -111 80 -65 78 -71 82
-120 83 -48 0 -49 1 -27 40 30 50 62 37 169 -70z m556 69 c27 -35 24 -39 -30
-39 -53 0 -71 -12 -139 -98 -18 -23 -46 -49 -62 -57 -25 -13 -29 -13 -34 2 -5
12 21 45 95 119 111 111 133 121 170 73z m-772 -56 c113 7 121 3 183 -73 24
-30 62 -65 84 -77 21 -13 36 -23 32 -23 -21 0 -62 25 -127 79 -82 68 -84 69
-198 73 -72 3 -85 6 -105 27 l-23 24 29 -18 c25 -15 44 -17 125 -12z m943 5
c-19 -19 -35 -23 -105 -26 -113 -4 -118 -6 -186 -62 -62 -52 -120 -90 -135
-90 -6 0 10 13 35 28 24 16 63 54 87 84 23 31 52 58 63 61 11 3 62 3 113 0 77
-5 98 -3 117 11 33 23 37 20 11 -6z m-993 -54 c8 -7 12 -16 9 -20 -12 -11 -68
8 -78 27 -10 17 -8 18 22 13 18 -4 39 -13 47 -20z m458 -15 l21 -36 -25 0
c-34 0 -66 -35 -66 -71 0 -16 12 -45 27 -65 30 -39 52 -94 92 -231 23 -76 27
-111 28 -216 1 -102 -2 -131 -17 -157 -39 -73 -99 -97 -117 -47 -11 29 -13
398 -2 459 l7 40 22 -35 c26 -44 60 -157 69 -232 11 -92 28 -71 20 25 -9 113
-19 146 -84 272 -52 102 -56 115 -57 181 0 61 4 76 28 113 16 24 30 41 31 39
1 -1 12 -19 23 -39z m517 11 c-14 -13 -74 -23 -74 -12 0 15 22 30 50 34 26 3
38 -8 24 -22z m-835 0 c11 -7 -2 -9 -45 -10 -46 0 -65 4 -75 17 -13 15 -9 16
45 9 32 -3 66 -11 75 -16z m750 4 c-12 -11 -32 -14 -75 -12 l-59 3 35 12 c19
6 53 12 75 12 36 1 38 0 24 -15z m-954 -34 c0 -34 -152 -41 -202 -10 -18 11
-33 21 -33 22 0 2 53 3 118 3 94 -1 117 -4 117 -15z m1275 12 c0 -1 -15 -11
-32 -22 -37 -23 -119 -27 -181 -9 -28 7 -36 14 -29 22 7 8 49 12 126 12 64 0
116 -1 116 -3z m-1150 -32 c0 -14 -43 -12 -77 2 l-28 11 35 7 c36 6 70 -3 70
-20z m124 21 c7 -11 -27 -21 -71 -21 -49 0 -49 18 -1 23 24 2 48 4 55 5 6 1
14 -2 17 -7z m624 -1 c20 0 31 -4 27 -10 -7 -11 -57 -13 -92 -4 -13 4 -20 11
-17 16 4 5 16 7 28 4 11 -3 36 -6 54 -6z m118 0 c14 0 23 -4 20 -9 -7 -11 -85
-25 -93 -17 -10 10 20 37 34 31 8 -3 26 -5 39 -5z m-709 -36 c-10 -10 -79 -23
-94 -17 -12 5 -12 7 -1 14 15 10 105 12 95 3z m278 -19 c14 -13 25 -29 25 -35
0 -13 -45 -60 -58 -60 -17 0 -62 41 -62 58 0 20 39 62 57 62 8 0 25 -11 38
-25z m295 14 c0 -12 -23 -17 -58 -12 -54 8 -49 24 7 22 28 -2 51 -6 51 -10z
m-690 -9 c0 -13 -80 -13 -100 0 -11 7 2 10 43 10 31 0 57 -4 57 -10z m810 0
c-20 -13 -100 -13 -100 0 0 6 26 10 58 10 40 0 53 -3 42 -10z m-653 -17 c5
-14 -80 -28 -98 -17 -8 5 3 12 32 19 50 14 61 13 66 -2z m466 0 c47 -10 31
-26 -20 -19 -25 3 -48 8 -51 10 -10 10 11 27 27 21 9 -4 28 -9 44 -12z m-706
-20 c6 -16 -33 -26 -91 -25 -68 1 -86 22 -20 23 27 0 58 4 69 9 24 10 37 8 42
-7z m123 8 c0 -15 -31 -22 -69 -14 l-36 7 30 7 c45 10 75 10 75 0z m709 -2
c10 0 6 -4 -9 -10 -28 -11 -70 -4 -70 12 0 7 11 9 31 5 17 -3 39 -6 48 -7z
m151 -9 c55 -6 53 -13 -6 -24 -43 -7 -104 11 -104 31 0 12 6 13 28 7 15 -4 52
-10 82 -14z m-710 1 c0 -12 -13 -20 -50 -31 -42 -12 -40 13 3 27 44 14 47 14
47 4z m388 -8 c12 -3 22 -12 22 -19 0 -17 -3 -17 -44 0 -41 17 -62 43 -25 32
13 -4 34 -10 47 -13z m-612 -17 c26 -20 13 -29 -51 -34 -59 -5 -77 12 -25 23
16 4 32 11 35 16 8 13 18 11 41 -5z m124 -7 c0 -12 -87 -12 -95 0 -3 5 9 11
27 13 40 4 68 -1 68 -13z m169 -26 l10 -48 -92 -92 c-88 -89 -92 -92 -110 -75
-26 23 -69 24 -57 2 8 -15 86 -90 93 -90 6 0 2 45 -5 56 -8 12 168 191 178
181 8 -8 9 -39 6 -191 l-2 -109 -31 7 c-17 3 -54 17 -82 31 -43 21 -48 22 -29
5 13 -11 48 -27 78 -37 30 -9 54 -20 54 -25 0 -13 -112 33 -169 70 -29 20 -71
58 -94 86 -42 54 -87 145 -86 174 0 19 1 17 40 -75 12 -29 25 -53 29 -53 4 0
-3 21 -16 48 -12 26 -25 57 -29 70 -6 20 -3 22 30 22 40 0 79 16 70 29 -2 5
16 12 41 16 51 7 72 0 28 -10 -43 -10 -53 -16 -19 -11 70 11 114 24 130 40 9
9 12 16 7 16 -5 0 -15 -7 -22 -15 -7 -8 -21 -15 -32 -15 -19 0 -19 1 3 20 13
10 34 19 46 20 18 0 23 -8 32 -47z m266 27 c15 -17 16 -20 3 -20 -9 0 -21 7
-28 15 -7 9 -19 14 -27 11 -7 -3 -13 -1 -13 4 0 18 47 10 65 -10z m189 -1 c-7
-12 -94 -12 -94 0 0 12 27 17 67 13 18 -2 30 -8 27 -13z m80 6 c11 -8 28 -15
38 -15 10 0 18 -5 18 -11 0 -13 -104 -8 -117 5 -5 4 1 14 11 22 24 17 26 17
50 -1z m-296 -27 c6 -6 24 -13 39 -14 15 -2 57 -10 93 -18 36 -9 82 -16 103
-16 43 0 46 -9 18 -72 -50 -114 -69 -113 -198 15 -57 56 -103 105 -103 109 0
12 35 9 48 -4z m-475 -12 c3 -8 3 -17 0 -20 -10 -10 -91 -7 -98 4 -3 6 4 10
17 10 13 0 30 5 38 10 21 14 37 12 43 -4z m622 4 c17 -4 23 -9 15 -10 -25 -4
-64 1 -80 11 -19 11 21 10 65 -1z m117 -7 c15 -3 25 -9 22 -14 -7 -12 -91 -11
-99 1 -11 17 6 32 29 25 11 -4 33 -9 48 -12z m-125 -210 c-10 -9 -197 177
-197 197 0 8 46 -31 102 -87 56 -56 99 -106 95 -110z m128 80 c-59 -120 -183
-223 -287 -238 -23 -4 -16 1 22 15 125 46 241 162 277 277 10 32 19 49 21 39
2 -10 -13 -52 -33 -93z m-149 -121 c-2 -13 -14 -33 -27 -43 -23 -18 -129 -63
-134 -57 -8 9 -55 214 -55 238 0 16 5 41 12 55 l12 26 97 -97 c77 -77 97 -102
95 -122z m291 183 c-13 -9 -17 -20 -12 -36 8 -23 -3 -21 -37 9 -25 21 -22 30
10 35 54 8 58 7 39 -8z m-1022 -25 c0 -15 -6 -25 -15 -25 -8 0 -21 -4 -27 -8
-7 -5 -13 -4 -13 2 0 5 5 13 10 16 15 9 2 25 -15 18 -24 -9 -17 7 8 17 34 14
52 7 52 -20z m976 -25 c32 -17 31 -35 -4 -35 -20 0 -20 0 -1 -15 26 -19 10
-19 -29 2 l-32 16 28 10 c26 8 27 10 10 23 -24 18 -9 18 28 -1z m-931 -61 l32
-55 -22 -24 c-26 -27 -9 -46 19 -21 22 20 23 20 49 -3 27 -22 27 -29 3 -61
-19 -24 -20 -24 -40 -6 l-21 19 20 22 c29 30 25 43 -5 15 -20 -19 -27 -21 -40
-10 -20 17 -19 29 7 57 18 19 19 23 5 17 -9 -3 -23 -1 -31 5 -7 6 -22 8 -31 4
-12 -4 -16 -3 -12 4 4 6 3 13 -2 15 -5 1 -12 15 -16 29 -6 23 -3 28 22 37 15
6 29 11 30 11 1 1 16 -24 33 -55z m901 -1 c16 -10 29 -21 29 -26 0 -5 -11 -2
-25 7 -38 25 -54 8 -19 -21 20 -16 24 -23 13 -23 -9 0 -22 7 -29 15 -9 11 -16
13 -23 6 -7 -7 -3 -19 13 -36 l23 -25 -27 0 c-25 0 -27 -2 -16 -16 11 -13 9
-19 -13 -42 l-27 -27 -27 27 -27 27 24 26 c18 20 32 25 53 22 25 -3 26 -2 13
11 -13 13 -12 19 7 53 12 22 24 39 25 39 2 0 17 -8 33 -17z m-762 -45 c16 -18
27 -35 25 -37 -5 -6 -64 50 -64 61 0 15 10 8 39 -24z m593 -10 c-17 -18 -34
-29 -37 -26 -4 4 8 20 26 37 18 17 35 29 38 26 3 -3 -9 -20 -27 -37z m-623
-116 c-10 -17 -10 -23 0 -36 16 -19 8 -21 -18 -4 -19 12 -19 12 1 41 22 31 37
31 17 -1z m622 7 c-19 -7 -20 -12 -11 -29 12 -22 31 -23 38 0 3 8 0 10 -9 5
-11 -6 -12 -5 -1 6 18 20 40 -4 22 -26 -15 -18 -41 -20 -57 -4 -8 8 -13 8 -18
0 -3 -6 1 -14 9 -17 9 -3 16 -10 16 -15 0 -6 -8 -5 -19 1 -26 13 -34 13 -29
-2 6 -18 -18 -39 -37 -32 -10 4 -22 -1 -30 -12 -13 -17 -14 -15 -15 23 0 52
12 61 39 27 24 -31 38 -27 21 6 -14 27 4 54 32 47 11 -3 18 0 18 8 0 17 31 36
44 28 5 -4 -1 -10 -13 -14z m-566 -30 c-6 -18 -5 -19 14 -7 18 11 23 10 38 -5
11 -10 13 -17 5 -17 -7 0 -12 5 -12 10 0 16 -27 11 -34 -6 -8 -21 2 -37 20
-30 8 3 14 0 14 -6 0 -6 11 -1 24 11 30 29 46 20 46 -25 0 -35 -13 -46 -24
-18 -4 10 -13 13 -26 9 -11 -3 -20 -2 -20 4 0 5 -10 11 -22 13 -14 2 -24 12
-28 28 -6 24 -6 24 -18 5 -6 -11 -12 -14 -12 -7 0 13 29 62 37 62 2 0 1 -9 -2
-21z"/>
<path d="M652 1358 c2 -12 11 -24 21 -26 14 -3 18 1 15 20 -2 12 -11 24 -21
26 -14 3 -18 -1 -15 -20z"/>
<path d="M520 1250 c0 -5 5 -10 10 -10 6 0 10 5 10 10 0 6 -4 10 -10 10 -5 0
-10 -4 -10 -10z"/>
<path d="M1376 1146 c3 -9 11 -16 16 -16 13 0 5 23 -10 28 -7 2 -10 -2 -6 -12z"/>
<path d="M874 906 c-12 -31 0 -61 27 -64 33 -4 53 20 45 53 -5 20 -13 25 -37
25 -16 0 -32 -6 -35 -14z m56 -12 c11 -12 10 -18 -3 -32 -16 -15 -18 -15 -34
0 -13 14 -14 20 -3 32 7 9 16 16 20 16 4 0 13 -7 20 -16z"/>
<path d="M785 790 c-3 -5 -1 -10 4 -10 6 0 11 5 11 10 0 6 -2 10 -4 10 -3 0
-8 -4 -11 -10z"/>
<path d="M680 685 c-36 -36 -61 -65 -58 -65 9 0 130 121 126 126 -2 2 -33 -26
-68 -61z"/>
<path d="M1415 730 c3 -5 8 -10 11 -10 2 0 4 5 4 10 0 6 -5 10 -11 10 -5 0 -7
-4 -4 -10z"/>
<path d="M410 726 c0 -9 5 -16 10 -16 6 0 10 4 10 9 0 6 -4 13 -10 16 -5 3
-10 -1 -10 -9z"/>
<path d="M437 648 c4 -20 3 -21 -7 -5 -11 17 -30 24 -30 10 0 -5 7 -17 15 -28
14 -17 17 -18 30 -4 9 9 13 23 9 32 -9 25 -23 21 -17 -5z"/>
<path d="M460 611 c0 -6 5 -13 10 -16 6 -3 10 1 10 9 0 9 -4 16 -10 16 -5 0
-10 -4 -10 -9z"/>
<path d="M542 509 c2 -7 10 -15 17 -17 8 -3 12 1 9 9 -2 7 -10 15 -17 17 -8 3
-12 -1 -9 -9z"/>
<path d="M526 492 c-3 -6 -1 -14 5 -17 15 -10 25 3 12 16 -7 7 -13 7 -17 1z"/>
<path d="M1262 518 c-7 -7 -12 -16 -12 -22 0 -6 5 -5 12 2 17 17 33 15 18 -3
-18 -21 -6 -29 19 -14 19 12 19 15 4 31 -19 21 -25 22 -41 6z"/>
<path d="M1140 419 c0 -5 5 -7 10 -4 6 3 10 8 10 11 0 2 -4 4 -10 4 -5 0 -10
-5 -10 -11z"/>
<path d="M1085 380 c3 -5 8 -10 11 -10 2 0 4 5 4 10 0 6 -5 10 -11 10 -5 0 -7
-4 -4 -10z"/>
<path d="M758 1493 c7 -3 16 -2 19 1 4 3 -2 6 -13 5 -11 0 -14 -3 -6 -6z"/>
<path d="M700 1480 c-18 -12 -2 -12 25 0 13 6 15 9 5 9 -8 0 -22 -4 -30 -9z"/>
<path d="M613 1443 c-28 -14 -73 -43 -98 -64 -56 -47 -50 -53 7 -7 22 17 68
46 101 64 73 39 65 45 -10 7z"/>
<path d="M1230 1421 c0 -5 9 -13 21 -16 28 -9 189 -170 189 -190 0 -8 5 -15
10 -15 18 0 -7 36 -72 106 -63 67 -148 133 -148 115z"/>
<path d="M423 1293 c-58 -73 -123 -193 -104 -193 4 0 13 16 20 36 14 40 95
162 119 182 9 6 11 12 6 12 -6 0 -24 -17 -41 -37z"/>
<path d="M1460 1181 c0 -6 4 -13 10 -16 6 -3 7 1 4 9 -7 18 -14 21 -14 7z"/>
<path d="M1729 1085 c-3 -2 -30 -11 -60 -19 -38 -10 -46 -15 -26 -15 15 -1 42
5 60 12 18 8 38 12 45 10 6 -3 12 0 12 6 0 11 -22 15 -31 6z"/>
<path d="M208 1043 c6 -2 18 -2 25 0 6 3 1 5 -13 5 -14 0 -19 -2 -12 -5z"/>
<path d="M1578 1043 c6 -2 18 -2 25 0 6 3 1 5 -13 5 -14 0 -19 -2 -12 -5z"/>
<path d="M1525 778 c-6 -36 -7 -64 -3 -62 9 6 21 86 16 110 -2 10 -8 -11 -13
-48z"/>
<path d="M291 738 c-1 -26 39 -127 72 -180 42 -69 43 -59 1 17 -20 36 -44 92
-54 123 -10 31 -19 49 -19 40z"/>
<path d="M1502 679 c-20 -52 -21 -71 -2 -30 11 24 18 46 15 49 -2 3 -8 -6 -13
-19z"/>
<path d="M1455 574 c-9 -14 -14 -28 -12 -31 3 -3 13 9 22 26 19 38 14 41 -10
5z"/>
<path d="M1370 461 c-36 -38 -76 -75 -89 -84 -14 -9 -22 -19 -19 -22 6 -7 131
108 159 146 11 16 19 29 17 29 -2 -1 -32 -32 -68 -69z"/>
<path d="M426 468 c38 -42 98 -97 101 -94 4 4 -119 126 -125 126 -3 0 7 -14
24 -32z"/>
<path d="M544 361 c4 -6 16 -16 28 -22 15 -8 18 -8 14 0 -4 6 -16 16 -28 22
-15 8 -18 8 -14 0z"/>
<path d="M1181 319 c-62 -33 -77 -45 -39 -30 40 15 108 51 108 56 0 8 -13 3
-69 -26z"/>
<path d="M656 300 c33 -16 78 -31 100 -34 l39 -6 -45 13 c-25 8 -67 23 -94 35
-71 32 -71 25 0 -8z"/>
<path d="M1050 270 c-20 -6 -21 -8 -5 -8 11 0 29 3 40 8 25 11 -1 11 -35 0z"/>
</g>
</svg>
