<?xml version="1.0" standalone="no"?>
<!DOCTYPE svg PUBLIC "-//W3C//DTD SVG 20010904//EN"
 "http://www.w3.org/TR/2001/REC-SVG-20010904/DTD/svg10.dtd">
<svg version="1.0" xmlns="http://www.w3.org/2000/svg"
 width="350.000000pt" height="350.000000pt" viewBox="0 0 350.000000 350.000000"
 preserveAspectRatio="xMidYMid meet">

<g transform="translate(0.000000,350.000000) scale(0.100000,-0.100000)"
fill="#000000" stroke="none">
<path d="M1593 2506 c-127 -25 -328 -106 -321 -131 4 -14 153 -142 200 -171
l38 -24 77 21 c106 30 240 29 347 0 l78 -22 51 29 c50 28 195 150 196 165 2
14 -182 96 -264 117 -103 28 -301 35 -402 16z m186 -113 l20 -38 11 33 c11 29
40 46 40 22 0 -16 -49 -110 -58 -110 -7 0 -52 107 -52 123 0 20 22 3 39 -30z
m-81 -6 c11 -19 27 -46 37 -61 l18 -27 -41 7 c-32 5 -45 2 -59 -11 -25 -25
-28 -4 -7 57 17 55 23 68 29 68 1 0 12 -15 23 -33z m246 -43 c18 -72 17 -83
-7 -60 -19 20 -67 32 -67 17 0 -6 -7 -11 -15 -11 -8 0 -15 3 -15 7 0 11 73
113 80 113 4 0 15 -30 24 -66z m-346 -4 c23 -67 18 -73 -37 -39 -39 24 -45 21
-32 -14 9 -24 6 -37 -10 -37 -4 0 -16 27 -27 60 -23 66 -18 71 35 39 40 -25
47 -22 34 14 -9 24 -6 37 10 37 4 0 16 -27 27 -60z m435 44 c3 -4 0 -22 -8
-41 -20 -47 -19 -60 5 -68 11 -3 20 -11 20 -17 0 -12 -59 -3 -72 10 -9 9 30
122 42 122 4 0 9 -3 13 -6z"/>
<path d="M1670 2344 c0 -8 5 -12 10 -9 6 3 10 10 10 16 0 5 -4 9 -10 9 -5 0
-10 -7 -10 -16z"/>
<path d="M1895 2340 c-3 -5 1 -10 9 -10 9 0 16 5 16 10 0 6 -4 10 -9 10 -6 0
-13 -4 -16 -10z"/>
<path d="M1216 2328 c5 -7 46 -59 92 -115 l83 -101 36 21 36 21 -24 15 c-13 9
-50 39 -82 66 -110 94 -163 129 -141 93z"/>
<path d="M2213 2266 c-44 -40 -94 -81 -111 -92 -18 -10 -32 -21 -32 -24 0 -3
13 -12 29 -21 l29 -17 79 96 c43 53 84 104 91 114 28 39 -9 15 -85 -56z"/>
<path d="M936 2045 c-78 -134 -126 -311 -126 -467 0 -67 2 -77 19 -83 20 -6
29 -27 55 -132 21 -87 82 -200 162 -302 2 -2 42 29 88 68 l85 72 -28 47 c-67
109 -100 279 -80 411 12 81 46 183 80 238 11 18 19 37 17 42 -4 11 -212 181
-221 181 -4 0 -26 -34 -51 -75z m190 -111 c-17 -17 -26 -35 -26 -57 l-1 -32
-44 50 c-25 28 -45 55 -45 60 0 6 28 9 71 7 l72 -4 -27 -24z m-43 -131 c-11
-32 -11 -32 -80 -13 -33 8 -53 19 -53 28 0 10 7 12 26 8 75 -19 81 -19 87 5 5
18 9 21 18 12 8 -8 8 -20 2 -40z m-123 -63 c0 -34 15 -40 23 -10 7 26 27 26
27 1 0 -33 20 -34 26 -1 9 41 30 33 26 -11 -2 -19 -7 -37 -10 -41 -7 -6 -111
7 -119 16 -9 8 7 76 17 76 6 0 10 -13 10 -30z m78 -102 c7 -7 12 -24 12 -38 0
-38 -18 -50 -78 -50 -69 0 -67 23 4 30 35 4 49 9 49 20 0 9 -11 16 -30 18 -50
4 -75 12 -75 22 0 14 104 12 118 -2z m16 -124 c19 -50 -12 -104 -59 -104 -14
0 -34 9 -45 20 -25 25 -27 80 -4 80 11 0 14 -5 10 -16 -9 -24 12 -54 39 -54
31 0 50 32 35 59 -13 26 -13 31 4 31 8 0 17 -7 20 -16z m32 -139 c16 -25 13
-55 -5 -55 -5 0 -11 10 -13 22 -4 28 -28 36 -28 10 0 -35 -11 -52 -36 -52 -23
0 -44 25 -44 54 0 9 7 16 15 16 8 0 15 -9 15 -20 0 -11 5 -20 10 -20 6 0 10 7
10 16 0 52 48 71 76 29z m54 -125 c0 -8 -90 -60 -104 -60 -11 0 -36 61 -30 72
4 7 12 1 21 -16 17 -32 36 -25 27 10 -7 26 13 35 22 9 4 -8 12 -15 20 -15 17
0 17 5 4 31 -19 34 1 43 21 10 10 -18 19 -36 19 -41z"/>
<path d="M1060 1931 c0 -17 18 -21 24 -6 3 9 0 15 -9 15 -8 0 -15 -4 -15 -9z"/>
<path d="M2414 2030 l-110 -90 38 -77 c51 -104 68 -178 68 -293 0 -113 -17
-188 -67 -290 -20 -41 -37 -78 -37 -81 -2 -13 168 -143 171 -132 2 6 22 35 44
64 57 77 96 161 121 263 18 73 26 90 46 99 25 11 25 12 19 122 -7 125 -34 240
-78 335 -33 72 -90 170 -99 170 -3 0 -55 -41 -116 -90z m96 -130 l-32 -40 47
0 c27 0 45 -4 43 -10 -6 -19 -106 -71 -113 -59 -4 6 -5 12 -4 13 2 1 15 10 29
19 l24 17 -32 0 c-35 0 -41 14 -16 41 15 17 15 18 -11 16 -48 -4 -39 20 12 31
87 18 88 17 53 -28z m80 -124 c0 -8 -21 -17 -57 -25 -71 -14 -76 -14 -71 1 4
12 73 35 111 37 9 1 17 -5 17 -13z m10 -61 c0 -10 -16 -16 -51 -21 -47 -6 -50
-8 -45 -30 5 -17 2 -24 -9 -24 -9 0 -16 10 -16 25 -1 14 -2 31 -3 38 -1 7 18
14 49 18 28 3 56 7 63 7 6 1 12 -5 12 -13z m8 -107 c-3 -9 -25 -13 -63 -13
-38 0 -60 4 -62 13 -4 9 13 12 62 12 49 0 66 -3 63 -12z m2 -57 c0 -34 -12
-81 -21 -81 -5 0 -9 9 -9 19 0 17 -8 20 -47 23 -28 2 -48 8 -51 17 -3 10 7 12
46 10 42 -3 52 -1 56 14 6 23 26 22 26 -2z m-68 -102 c27 -23 47 -43 45 -45
-2 -2 -33 -10 -70 -18 -57 -11 -67 -11 -67 0 0 8 5 14 10 14 16 0 33 51 20 64
-5 5 -10 14 -10 18 0 17 25 6 72 -33z m-36 -110 c27 -11 50 -22 52 -24 2 -2
-4 -17 -13 -34 -19 -37 -63 -44 -72 -11 -6 23 -4 23 -37 10 -21 -8 -26 -6 -26
6 0 8 14 20 31 26 26 9 29 12 15 20 -17 10 -22 28 -7 28 5 0 31 -9 57 -21z"/>
<path d="M2510 1424 c0 -8 5 -12 10 -9 6 4 8 11 5 16 -9 14 -15 11 -15 -7z"/>
<path d="M2490 1295 c0 -10 7 -15 18 -13 21 4 19 22 -2 26 -10 2 -16 -3 -16
-13z"/>
<path d="M2838 1993 c-9 -59 -15 -121 -12 -138 l5 -30 -28 34 c-15 19 -44 66
-63 104 -44 90 -61 97 -54 25 14 -138 63 -256 120 -290 32 -19 54 -55 54 -90
0 -19 -1 -20 -25 -4 -31 21 -35 20 -35 -5 0 -15 5 -19 18 -15 33 10 43 -9 47
-85 3 -41 5 -80 5 -87 0 -7 5 -10 10 -7 6 3 10 50 10 106 l0 101 37 -4 c38 -3
49 7 33 32 -7 12 -12 12 -22 2 -14 -14 -28 -16 -28 -3 0 4 26 37 59 72 71 79
90 113 102 192 5 34 11 78 14 97 l6 35 -18 -26 c-10 -14 -35 -46 -55 -70 -20
-25 -51 -73 -68 -107 -17 -34 -33 -62 -36 -62 -3 0 -3 35 1 78 7 79 1 110 -43
212 l-17 41 -17 -108z"/>
<path d="M641 1993 c-31 -72 -33 -84 -28 -155 6 -85 -2 -98 -22 -42 -7 19 -32
64 -56 98 -23 35 -50 76 -58 92 l-16 29 -1 -59 c0 -62 22 -160 47 -211 8 -16
35 -48 59 -71 38 -36 44 -46 44 -82 0 -46 -1 -48 -30 -30 -22 14 -35 6 -27
-16 5 -11 15 -14 37 -10 l30 7 0 -56 c0 -31 5 -59 10 -62 10 -6 15 31 11 98
-3 37 5 43 47 38 6 -1 12 7 12 18 0 18 -2 19 -27 6 -15 -8 -30 -12 -35 -9 -15
10 22 63 64 91 55 37 118 129 125 184 l6 43 -39 -37 c-21 -20 -43 -37 -47 -37
-4 0 -19 -12 -32 -26 -28 -30 -30 -25 -14 26 10 35 -7 250 -21 250 -3 0 -21
-35 -39 -77z"/>
<path d="M2769 1530 c-3 -88 -4 -82 35 -195 23 -66 37 -129 42 -183 7 -82 7
-82 28 -67 12 8 30 20 41 25 83 42 111 68 147 135 21 39 38 74 38 78 0 5 -18
-6 -41 -25 -49 -40 -120 -88 -131 -88 -17 0 -6 29 27 71 40 50 70 140 80 239
l7 65 -20 -25 c-54 -71 -116 -181 -135 -239 l-21 -66 -12 75 c-14 86 -33 156
-62 220 l-21 45 -2 -65z"/>
<path d="M500 1516 c0 -32 7 -81 16 -110 29 -92 32 -106 27 -106 -13 0 -80 54
-114 92 l-37 41 8 -39 c4 -22 25 -78 48 -126 37 -80 45 -90 108 -135 38 -26
78 -59 91 -72 l23 -24 0 69 c0 76 29 209 61 284 18 41 19 57 12 116 l-8 69
-26 -45 c-15 -25 -29 -69 -33 -100 -4 -30 -10 -75 -15 -100 -8 -45 -8 -45 -16
-15 -4 17 -21 55 -36 85 -16 30 -29 58 -29 62 0 6 -59 88 -76 107 -2 2 -4 -22
-4 -53z"/>
<path d="M604 1027 c-3 -9 -3 -21 1 -27 8 -13 35 -13 35 0 0 6 7 10 15 10 8 0
15 5 15 11 0 6 -7 8 -16 5 -9 -4 -23 -1 -30 5 -11 9 -15 8 -20 -4z"/>
<path d="M1320 949 c-36 -45 -75 -93 -87 -109 l-22 -27 47 -16 c26 -8 55 -18
65 -22 15 -6 16 -4 7 21 -23 61 17 71 93 24 26 -17 47 -34 47 -40 0 -5 22 -34
49 -64 27 -29 53 -61 58 -71 9 -15 30 -18 139 -22 71 -2 149 -1 173 4 38 7 46
13 55 41 10 28 88 112 104 112 3 0 22 11 42 25 48 33 98 43 106 21 4 -10 -1
-25 -12 -37 -18 -20 -18 -20 22 -2 21 10 49 24 62 31 l23 13 -37 47 c-21 26
-57 70 -80 98 l-43 50 -85 -41 c-47 -23 -113 -48 -146 -54 -85 -17 -228 -15
-302 4 -60 16 -172 66 -192 86 -6 5 -12 9 -15 9 -4 -1 -35 -37 -71 -81z m173
-101 c5 -33 -2 -54 -10 -30 -3 6 -16 12 -31 12 l-25 0 23 25 c31 33 37 32 43
-7z m562 16 c30 -20 32 -34 5 -34 -11 0 -20 -4 -20 -10 0 -5 -4 -10 -10 -10
-5 0 -10 16 -10 35 0 40 2 41 35 19z m-490 -10 c12 -12 13 -19 4 -30 -6 -7 -8
-18 -4 -24 3 -5 2 -10 -4 -10 -5 0 -13 5 -16 10 -4 6 -11 8 -16 5 -10 -7 -11
10 -3 43 7 26 17 28 39 6z m430 -26 c7 -27 -7 -39 -20 -18 -10 16 -28 12 -21
-5 3 -8 1 -15 -4 -15 -12 0 -25 48 -16 57 3 4 12 1 18 -5 18 -18 27 -14 21 11
-4 15 -2 19 5 12 6 -5 14 -22 17 -37z m-351 16 c26 -10 18 -25 -9 -18 -21 5
-25 3 -25 -15 0 -12 5 -21 11 -21 5 0 7 5 4 10 -3 6 1 10 9 10 20 0 21 -29 1
-36 -33 -13 -59 38 -33 64 14 14 20 14 42 6z m268 -34 c5 -35 -7 -41 -16 -7
-8 32 -7 49 3 43 5 -3 11 -19 13 -36z m-192 20 c0 -5 -8 -11 -17 -11 -17 -1
-17 -2 0 -6 9 -2 17 -9 17 -14 0 -5 -8 -10 -17 -10 -17 -1 -17 -2 0 -6 19 -5
23 -23 5 -23 -26 0 -35 16 -31 48 4 23 11 32 24 32 11 0 19 -4 19 -10z m142
-25 c-4 -36 -22 -39 -22 -4 0 10 -4 19 -10 19 -5 0 -10 5 -10 10 0 6 10 10 23
10 20 0 23 -4 19 -35z m-90 8 c17 -15 18 -15 18 1 0 9 5 14 10 11 11 -7 14
-55 3 -55 -3 0 -15 7 -25 17 -17 15 -18 15 -18 -6 0 -12 -4 -19 -10 -16 -11 7
-14 65 -3 65 3 0 15 -7 25 -17z"/>
<path d="M1540 840 c0 -5 5 -10 10 -10 6 0 10 5 10 10 0 6 -4 10 -10 10 -5 0
-10 -4 -10 -10z"/>
<path d="M2840 910 c-19 -11 -52 -26 -72 -34 -25 -10 -49 -31 -70 -62 -18 -27
-47 -63 -63 -82 -29 -33 -34 -34 -118 -39 -84 -6 -87 -5 -87 16 0 11 5 21 10
21 6 0 10 7 10 15 0 8 -9 15 -21 15 -15 0 -19 -5 -14 -19 10 -31 -4 -48 -44
-54 -34 -4 -97 -35 -89 -43 2 -2 21 1 43 6 22 5 68 10 102 10 51 0 63 -3 68
-19 3 -10 3 -26 -1 -35 -4 -12 0 -16 15 -16 12 0 21 6 21 15 0 8 -4 15 -9 15
-5 0 -11 9 -14 20 -4 14 0 20 12 20 21 0 43 -17 64 -52 10 -15 28 -30 42 -34
13 -3 31 -17 39 -30 9 -13 34 -29 56 -35 22 -7 56 -28 76 -47 19 -19 38 -32
41 -29 14 15 -30 101 -74 145 l-48 47 50 6 c28 4 80 22 117 42 l67 35 -70 13
c-61 11 -74 10 -105 -4 -37 -18 -114 -23 -114 -8 0 5 16 15 35 21 53 17 121
79 159 143 19 31 31 57 28 57 -4 -1 -23 -10 -42 -20z"/>
<path d="M605 890 c4 -14 13 -36 20 -50 23 -44 112 -114 161 -126 l29 -8 -25
-7 c-14 -4 -50 -7 -80 -8 -36 -1 -72 -9 -105 -26 -27 -13 -53 -25 -57 -25 -15
0 -88 -35 -88 -41 0 -10 229 -9 265 1 42 12 145 18 145 9 0 -4 -15 -13 -34
-19 -19 -6 -46 -26 -60 -45 -14 -18 -34 -36 -43 -39 -10 -4 -28 -22 -41 -42
l-23 -36 23 7 c13 4 34 13 48 20 14 7 44 17 65 20 53 10 112 41 128 66 6 11
35 37 62 57 49 36 51 37 138 36 70 -1 85 1 77 11 -6 7 -44 16 -86 20 l-75 7 3
35 c3 38 -7 49 -32 33 -13 -9 -13 -12 3 -24 25 -19 18 -50 -12 -54 -17 -3 -36
10 -75 51 -52 56 -149 108 -226 122 -20 4 -52 23 -74 44 -35 33 -38 34 -31 11z"/>
<path d="M2371 829 c-13 -10 -30 -19 -37 -19 -17 0 -147 -64 -186 -92 l-28
-19 6 33 c4 18 12 43 20 54 12 20 11 21 -6 17 -10 -3 -26 -14 -36 -24 -9 -10
-21 -19 -26 -19 -5 0 -29 -17 -53 -37 -45 -37 -61 -67 -75 -138 -5 -22 -11
-49 -15 -60 -5 -17 0 -22 27 -30 27 -8 39 -22 68 -78 20 -38 43 -73 50 -77 8
-5 35 -27 60 -50 43 -41 98 -80 111 -80 15 0 -15 82 -36 98 -12 10 -30 32 -39
49 -9 18 -24 38 -34 45 -20 15 -67 78 -57 78 3 0 18 -6 33 -14 17 -8 59 -14
113 -13 50 0 95 -5 109 -13 13 -7 45 -19 71 -25 l48 -13 -27 40 c-15 23 -39
46 -55 53 -26 11 -21 12 62 18 118 7 139 19 69 36 -29 8 -69 21 -88 31 -33 16
-99 32 -127 31 -7 0 -39 -1 -70 -2 -32 -1 -70 -8 -85 -15 -16 -8 -28 -11 -28
-6 0 9 21 20 136 75 25 12 53 32 62 45 8 13 27 29 43 37 16 9 32 29 39 50 16
47 10 57 -19 34z"/>
<path d="M1365 783 c9 -20 20 -43 27 -50 17 -21 7 -23 -37 -6 -143 54 -176 63
-215 57 l-40 -6 28 -21 c15 -12 56 -46 91 -76 l63 -56 -28 -12 c-16 -7 -40
-12 -52 -13 -13 0 -36 -9 -51 -19 -15 -11 -40 -23 -57 -27 -16 -4 -41 -15 -56
-26 -14 -10 -40 -21 -58 -24 -58 -12 -14 -29 75 -29 l84 0 -16 -25 c-8 -14
-27 -35 -42 -47 -24 -21 -24 -23 -6 -23 11 0 41 11 67 25 26 14 57 25 70 25
13 0 43 9 67 20 24 11 58 20 76 20 19 0 45 4 59 10 39 15 32 -3 -29 -65 -30
-31 -55 -60 -55 -64 0 -5 -20 -30 -44 -55 -37 -40 -64 -86 -50 -86 2 0 33 16
69 35 76 40 171 132 180 175 10 46 42 80 76 80 22 0 29 5 29 19 0 36 -49 129
-99 186 -28 32 -51 61 -51 65 0 6 -73 50 -84 50 -3 0 1 -17 9 -37z"/>
<path d="M1404 256 c-63 -44 -124 -99 -124 -112 0 -19 44 -28 70 -14 12 6 47
37 79 69 l58 58 -27 10 c-21 8 -32 6 -56 -11z"/>
<path d="M2041 259 c-23 -9 -23 -9 24 -62 65 -71 74 -77 109 -77 63 0 61 14
-15 83 -74 70 -79 72 -118 56z"/>
</g>
</svg>
