<?xml version="1.0" standalone="no"?>
<!DOCTYPE svg PUBLIC "-//W3C//DTD SVG 20010904//EN"
 "http://www.w3.org/TR/2001/REC-SVG-20010904/DTD/svg10.dtd">
<svg version="1.0" xmlns="http://www.w3.org/2000/svg"
 width="600.000000pt" height="674.000000pt" viewBox="0 0 600.000000 674.000000"
 preserveAspectRatio="xMidYMid meet">

<g transform="translate(0.000000,674.000000) scale(0.100000,-0.100000)"
fill="#000000" stroke="none">
<path d="M2980 6530 c0 -11 -7 -20 -15 -20 -20 0 -19 -27 2 -38 15 -9 15 -11
-1 -28 -17 -16 -17 -19 -2 -29 9 -7 16 -21 16 -32 0 -16 -11 -23 -45 -33 -61
-17 -120 -61 -153 -114 -26 -41 -29 -43 -48 -29 -10 9 -14 17 -9 19 6 3 17 9
25 15 13 8 12 12 -7 26 -13 8 -23 24 -23 34 0 11 -7 19 -15 19 -8 0 -15 -9
-15 -20 0 -10 -10 -25 -22 -31 l-22 -12 24 -19 c22 -18 22 -19 4 -32 -17 -13
-17 -16 -3 -33 9 -10 19 -25 22 -33 4 -10 6 -8 6 7 1 12 -7 27 -16 33 -17 10
-17 10 0 20 24 15 21 36 -5 44 l-23 7 23 9 c13 6 22 18 23 32 1 23 1 23 8 -1
3 -13 15 -28 26 -32 19 -8 19 -8 -2 -15 -27 -8 -30 -29 -5 -44 16 -10 16 -10
0 -20 -10 -6 -18 -16 -18 -22 0 -7 5 -6 15 2 12 10 15 9 15 -8 0 -22 -24 -47
-38 -38 -5 3 -17 -3 -27 -14 -14 -16 -16 -23 -7 -32 17 -17 15 -68 -3 -74 -17
-7 -20 -35 -4 -51 13 -13 8 -58 -6 -58 -37 -1 -49 -53 -14 -62 14 -4 18 -11
14 -22 -4 -9 -9 -61 -12 -116 -5 -90 -9 -105 -36 -150 -17 -27 -35 -52 -39
-55 -4 -3 -3 -12 2 -20 32 -50 -7 -37 -70 23 -46 43 -44 41 7 -12 35 -35 63
-65 63 -68 0 -3 -16 4 -35 16 -19 11 -35 16 -35 11 0 -5 9 -14 20 -20 11 -6
20 -18 20 -28 0 -13 2 -14 9 -3 7 11 13 11 32 0 24 -13 0 -19 -217 -53 -17 -3
-38 -8 -47 -12 -11 -4 -17 -1 -17 7 0 9 -4 8 -12 -3 -11 -13 -107 -44 -112
-36 -1 2 -8 15 -15 29 -7 15 -24 32 -37 38 l-24 11 17 -28 c14 -22 9 -20 -28
13 -37 34 -36 31 10 -17 l54 -57 -58 -16 c-31 -10 -106 -36 -165 -60 l-108
-42 35 46 c45 58 54 84 56 151 1 60 -26 131 -85 224 -25 39 -29 52 -20 66 14
22 -11 62 -33 53 -9 -3 -23 1 -33 8 -15 13 -16 12 -4 -3 11 -14 10 -19 -10
-32 -12 -9 -28 -16 -35 -16 -7 0 -13 -4 -13 -10 0 -5 -4 -10 -9 -10 -5 0 -53
-25 -106 -56 -76 -44 -99 -53 -106 -43 -18 29 -7 45 59 79 37 19 94 51 127 71
33 19 68 38 78 42 27 10 21 44 -10 59 -22 10 -29 21 -31 51 -2 24 -8 37 -17
37 -21 0 -36 36 -29 65 5 21 2 27 -14 32 -18 4 -19 8 -9 24 9 14 9 21 -2 31
-11 11 -13 11 -7 0 4 -7 3 -19 -3 -26 -14 -16 -3 -49 13 -43 8 3 12 -6 12 -27
0 -17 4 -39 8 -48 6 -14 4 -18 -12 -18 -21 0 -49 26 -38 37 3 4 13 -2 21 -13
14 -18 15 -17 4 8 -7 16 -17 24 -25 21 -11 -4 -12 2 -8 26 6 27 4 31 -15 31
-11 0 -21 5 -21 10 0 6 5 10 10 10 6 0 10 5 10 12 0 8 -6 6 -16 -4 -20 -20
-12 -50 11 -42 16 6 19 -4 9 -29 -4 -12 -13 -11 -49 10 -54 30 -138 40 -190
23 -44 -14 -59 -2 -49 41 4 21 1 28 -17 32 -20 5 -21 8 -8 24 12 16 12 17 -2
6 -9 -7 -19 -10 -22 -6 -13 13 -7 23 16 24 19 1 19 2 3 6 -11 3 -28 15 -37 27
-15 17 -18 18 -19 5 0 -16 51 -133 339 -774 102 -227 120 -274 115 -302 -7
-37 8 -63 36 -63 10 0 21 -8 23 -17 3 -11 5 -7 6 10 1 22 -3 27 -23 27 -25 0
-36 15 -29 38 14 38 360 181 562 232 283 71 481 94 791 93 468 -1 872 -87
1214 -258 120 -60 133 -75 91 -110 -32 -26 -30 -30 8 -16 30 12 42 43 28 69
-8 15 10 65 93 248 289 641 366 817 361 823 -4 3 -12 -2 -19 -12 -7 -9 -20
-17 -29 -17 -20 0 -35 -22 -19 -28 17 -5 15 -32 -2 -32 -21 0 -30 -20 -16 -33
10 -9 12 -8 7 6 -4 11 -1 17 8 17 20 0 18 -10 -9 -43 -20 -25 -26 -27 -50 -17
-58 22 -174 3 -216 -35 -9 -8 -26 -13 -38 -10 -17 3 -26 -4 -39 -28 -9 -18
-18 -27 -20 -20 -2 7 1 21 7 33 9 16 8 25 -1 36 -11 14 -10 15 14 18 15 1 23
46 7 46 -6 0 -9 4 -5 10 3 5 12 7 20 4 8 -4 18 1 21 10 9 23 23 20 17 -4 -3
-11 0 -27 7 -35 10 -12 9 -15 -8 -15 -26 0 -38 -18 -23 -33 9 -9 11 -8 6 6 -5
13 -2 17 13 17 24 0 37 16 21 26 -6 3 -9 19 -5 35 7 35 -6 44 -29 19 -9 -10
-23 -16 -30 -14 -15 6 -28 -23 -15 -31 15 -9 12 -35 -4 -29 -16 6 -30 -22 -16
-31 17 -10 11 -25 -21 -55 -21 -19 -30 -34 -25 -45 9 -24 -10 -53 -36 -57 -18
-2 -23 -10 -24 -33 -1 -52 -3 -55 -34 -55 -35 0 -49 -23 -32 -51 10 -15 5 -29
-28 -80 -50 -77 -80 -158 -80 -212 0 -52 31 -122 73 -164 36 -38 31 -41 -21
-14 -20 10 -90 37 -156 59 -65 22 -120 43 -123 45 -2 3 11 20 29 39 19 18 21
22 6 9 -32 -28 -36 -22 -11 16 l18 26 -28 -17 c-15 -10 -27 -21 -27 -25 0 -3
-7 -14 -14 -24 -12 -15 -19 -16 -65 -5 -49 11 -51 13 -53 47 l-1 36 -4 -33
c-3 -25 -8 -32 -20 -28 -8 3 -19 6 -24 6 -5 0 -9 8 -9 18 -1 15 -2 15 -10 1
-8 -14 -17 -14 -100 1 -65 11 -94 21 -101 33 -8 14 -5 19 15 27 14 5 63 46
108 91 69 69 72 72 15 20 -85 -77 -186 -143 -147 -96 10 12 9 15 -4 15 -14 0
-15 4 -6 20 8 15 7 19 -2 15 -24 -8 -58 84 -58 155 0 36 -5 94 -11 129 -9 55
-8 66 5 73 20 11 21 58 1 58 -7 0 -19 8 -24 18 -6 9 -11 11 -11 5 0 -10 -71
-13 -320 -13 l-320 0 0 25 0 24 315 1 c215 0 315 -3 315 -10 0 -6 10 -1 22 10
18 16 20 24 12 38 -10 15 -37 17 -285 17 l-273 0 -7 25 -7 25 -1 -27 c-1 -38
-21 -36 -21 2 0 32 -1 31 75 33 23 1 31 -4 36 -23 l7 -25 1 25 1 25 127 -1
c126 0 127 -1 134 -25 l7 -24 1 25 c1 24 3 25 77 25 70 -1 78 -3 85 -23 5 -12
11 -22 14 -22 4 0 3 5 -1 11 -3 6 0 22 7 36 10 19 10 28 1 43 -15 24 -16 70
-2 70 14 0 12 37 -2 44 -9 3 -8 8 5 16 21 13 23 40 2 40 -8 0 -15 9 -15 19 0
25 -18 37 -33 22 -9 -9 -8 -11 6 -6 13 6 17 2 17 -14 0 -12 7 -24 15 -27 8 -4
15 -10 15 -15 0 -5 -7 -9 -15 -9 -18 0 -20 -36 -2 -44 10 -5 10 -7 0 -12 -7
-3 -13 -21 -13 -40 0 -19 -3 -34 -7 -34 -16 0 -31 16 -38 39 -6 20 -4 23 9 18
19 -7 22 9 4 17 -10 5 -10 7 0 12 17 8 15 44 -3 44 -8 0 -15 5 -15 10 0 6 7
10 15 10 8 0 15 4 15 9 0 5 -9 7 -20 4 -24 -6 -26 -29 -3 -41 15 -9 15 -11 0
-26 -15 -15 -17 -15 -31 11 -25 48 -90 103 -151 128 -32 13 -64 21 -72 18 -9
-4 -13 4 -13 26 0 23 -5 31 -17 31 -17 1 -17 1 0 14 21 16 23 46 2 46 -8 0
-15 5 -15 10 0 6 7 10 15 10 9 0 15 9 15 25 0 14 -2 25 -5 25 -3 0 -5 -9 -5
-20z m107 -202 c44 -13 114 -83 141 -140 38 -83 54 -78 -233 -77 l-256 0 7 22
c27 88 101 175 165 195 71 22 105 22 176 0z m233 -248 c0 -6 -113 -10 -320
-10 -207 0 -320 4 -320 10 0 6 113 10 320 10 207 0 320 -4 320 -10z m1454 -15
c-5 -12 -10 -13 -20 -4 -19 15 -18 19 6 19 13 0 18 -5 14 -15z m-2036 -43 c3
-29 1 -32 -22 -32 -22 0 -26 5 -26 28 0 33 8 44 30 40 9 -2 16 -16 18 -36z
m-1468 -11 c0 -17 -18 -21 -24 -6 -3 9 0 15 9 15 8 0 15 -4 15 -9z m2065 -41
c3 -5 3 -10 -2 -10 -4 -1 -156 -1 -337 -2 -248 -1 -331 1 -334 10 -5 16 663
17 673 2z m-1872 -24 c47 -17 115 -63 128 -88 8 -14 3 -21 -25 -35 -19 -10
-69 -37 -111 -61 -42 -24 -78 -42 -79 -40 -2 2 -18 39 -36 83 -18 43 -39 89
-47 101 -16 24 -11 30 35 44 41 12 93 11 135 -4z m3210 3 c20 -5 37 -13 37
-18 0 -7 -19 -50 -69 -153 l-27 -57 -100 55 c-115 65 -136 83 -122 107 5 9 14
17 20 17 9 0 9 -3 0 -12 -25 -25 -11 -31 16 -7 81 73 153 94 245 68z m-1313
-94 c0 -12 -49 -15 -350 -17 -193 -2 -355 -1 -360 0 -6 2 -10 10 -10 18 0 12
56 14 360 14 311 0 360 -2 360 -15z m-1692 -7 c-4 -12 -254 -158 -270 -158
-29 0 10 29 125 94 137 78 151 85 145 64z m2810 -66 c72 -40 132 -78 132 -83
0 -17 -21 -8 -154 66 -69 39 -126 76 -126 83 0 17 -12 22 148 -66z m-2798 13
c7 -14 11 -26 9 -28 -19 -15 -191 -107 -199 -107 -5 0 -10 -3 -10 -7 0 -12
-53 -34 -61 -26 -4 5 -10 17 -13 29 -5 17 0 24 31 37 41 18 126 66 183 103 44
29 44 29 60 -1z m1217 19 c-11 -12 -122 -34 -169 -34 -27 0 -48 -4 -48 -10 0
-5 5 -10 11 -10 34 0 160 25 207 41 30 10 59 19 65 19 36 0 -110 -94 -196
-125 -26 -10 -46 -20 -43 -22 7 -8 122 44 180 81 31 20 58 36 60 36 2 0 4 -62
5 -138 1 -137 0 -139 -29 -185 -39 -62 -72 -83 -108 -69 -15 6 -40 13 -55 16
-38 9 -83 54 -107 110 -23 51 -25 115 -7 229 l11 67 115 0 c63 0 112 -3 108
-6z m113 -209 c0 -184 -2 -215 -15 -215 -13 0 -15 30 -15 208 0 115 3 212 7
215 19 20 23 -12 23 -208z m312 206 c4 -34 2 -35 -52 -32 -30 1 -81 9 -114 17
-32 8 -60 13 -63 10 -7 -7 36 -18 142 -35 l100 -17 3 -42 c4 -50 1 -50 -89
-22 -65 20 -219 104 -219 119 0 12 290 14 292 2z m1119 -54 c160 -86 163 -89
140 -126 -10 -15 -17 -13 -76 23 -22 13 -71 41 -110 61 -97 52 -97 52 -78 81
14 23 17 23 38 10 12 -8 51 -30 86 -49z m-1363 1 c57 -39 197 -98 234 -98 35
0 41 -12 33 -60 -6 -37 -9 -39 -33 -34 -56 13 -147 70 -218 137 -66 61 -86 87
-68 87 3 0 26 -15 52 -32z m1371 -89 c62 -34 111 -68 111 -76 0 -12 -6 -11
-32 5 -18 11 -80 45 -138 77 -122 67 -132 74 -124 87 3 5 21 0 39 -11 19 -11
84 -48 144 -82z m-2719 84 c0 -14 -290 -172 -296 -161 -8 12 -20 4 136 91 129
73 160 86 160 70z m1363 -69 c67 -60 163 -118 213 -129 35 -7 36 -22 4 -65
-18 -24 -19 -24 -54 -8 -83 40 -278 258 -230 258 3 0 34 -25 67 -56z m1230 13
c143 -80 227 -130 227 -134 0 -2 -5 -13 -11 -24 -10 -20 -11 -20 -42 -1 -18
11 -59 34 -92 52 -112 61 -150 82 -153 85 -5 4 17 45 24 45 3 0 24 -11 47 -23z
m-2528 -38 c0 -14 -278 -177 -303 -178 -8 -1 -12 7 -10 16 3 18 285 184 303
179 6 -2 10 -9 10 -17z m1450 -186 l39 -21 -34 -21 c-19 -11 -43 -21 -52 -21
-22 0 -81 69 -134 160 -71 120 -56 125 49 17 50 -52 110 -103 132 -114z m1114
126 c166 -92 169 -95 154 -110 -12 -12 -21 -8 -200 93 -88 49 -121 73 -116 83
3 8 7 15 10 15 3 0 71 -37 152 -81z m-2559 -10 c0 -18 -204 -98 -217 -85 -2 2
40 29 93 60 73 41 101 52 111 44 7 -6 13 -14 13 -19z m2519 -25 c56 -31 101
-58 99 -60 -7 -7 -114 26 -170 52 -50 24 -55 29 -45 45 7 11 12 19 13 19 1 0
47 -25 103 -56z m-1247 -32 c21 -31 52 -72 70 -90 26 -27 29 -35 17 -43 -8 -5
-20 -9 -27 -9 -20 0 -70 57 -91 104 -18 39 -25 96 -12 96 3 0 23 -26 43 -58z
m-1239 9 c9 -16 17 -34 17 -40 0 -22 -113 -46 -217 -45 -57 0 -106 4 -110 8
-12 11 15 23 67 29 27 3 86 22 132 41 46 19 85 35 88 35 3 1 13 -12 23 -28z
m2435 -6 c35 -15 96 -33 135 -41 39 -9 74 -17 76 -20 13 -13 -21 -18 -117 -18
-77 0 -123 5 -164 18 -32 10 -58 21 -58 24 0 16 44 72 54 68 6 -3 39 -17 74
-31z m-1570 -89 c20 -17 20 -20 6 -47 -11 -22 -22 -29 -43 -29 -23 0 -32 8
-55 50 l-27 50 27 45 26 46 23 -48 c12 -26 32 -56 43 -67z m682 44 c25 -49 25
-55 -1 -91 -16 -24 -28 -29 -59 -29 -30 0 -42 5 -51 21 -9 18 -7 25 19 49 16
15 37 41 46 58 9 18 19 32 21 32 3 0 14 -18 25 -40z m-1497 -47 c8 -21 12 -41
8 -45 -28 -30 -195 -25 -301 10 -86 27 -72 37 58 38 79 1 130 7 157 17 57 22
61 21 78 -20z m1087 -8 c0 -45 0 -45 -35 -45 l-35 0 33 44 c17 25 33 45 35 45
1 1 2 -19 2 -44z m70 35 c0 -5 14 -25 31 -45 l31 -35 -41 0 -41 0 0 45 c0 25
5 45 10 45 6 0 10 -4 10 -10z m1195 -17 c43 -9 101 -13 153 -11 97 5 104 -8
19 -34 -118 -36 -269 -40 -300 -9 -5 5 -1 25 7 46 12 29 20 36 33 30 10 -4 50
-13 88 -22z m-2703 -56 c15 -34 53 -118 83 -186 31 -67 54 -125 52 -127 -2 -3
-13 17 -24 43 -12 27 -50 112 -86 191 -36 78 -63 142 -59 142 4 0 19 -29 34
-63z m2902 -91 c-37 -80 -68 -145 -70 -143 -2 2 26 69 63 150 36 81 68 146 70
144 2 -2 -27 -70 -63 -151z m-1654 95 l41 -18 -53 -6 c-29 -2 -55 -3 -56 -2
-7 6 9 45 18 45 4 0 27 -8 50 -19z m-1099 -27 c84 -14 110 -14 192 2 26 5 27
4 27 -34 0 -54 -17 -66 -83 -58 -58 8 -207 57 -243 81 -30 19 -34 51 -5 36 10
-6 61 -18 112 -27z m1574 18 c0 -7 -3 -12 -7 -12 -5 0 -23 0 -40 1 l-33 1 30
13 c33 16 50 14 50 -3z m1192 -6 c-16 -42 -297 -124 -335 -98 -8 5 -16 28 -19
52 -6 42 -6 42 23 36 82 -16 108 -17 179 -6 42 6 93 17 113 25 41 14 47 13 39
-9z m-1017 -16 c0 -5 -9 -10 -21 -10 -11 0 -17 5 -14 10 3 6 13 10 21 10 8 0
14 -4 14 -10z m-1679 -85 c31 -8 75 -15 98 -15 l41 0 -23 -37 c-14 -23 -34
-39 -47 -41 -46 -7 -250 112 -250 146 0 6 28 -1 63 -14 34 -14 87 -31 118 -39z
m2668 42 c-17 -37 -155 -120 -221 -132 -32 -6 -38 -4 -62 28 -14 18 -26 37
-26 40 0 4 17 7 38 7 47 0 136 23 210 54 73 30 74 30 61 3z m-2694 -118 c33
-16 66 -29 73 -29 6 0 12 -5 12 -10 0 -16 -46 -33 -72 -27 -42 11 -106 60
-122 94 -22 46 -21 48 17 23 17 -12 59 -35 92 -51z m2655 30 c-26 -61 -139
-119 -175 -89 -24 20 -18 27 33 44 26 9 70 31 97 50 28 19 52 32 54 30 2 -2
-2 -18 -9 -35z m-2653 -131 c-12 -10 -27 -18 -33 -18 -8 0 -44 60 -44 75 0 2
22 -6 49 -18 l50 -22 -22 -17z m2608 32 c-22 -43 -18 -61 5 -20 23 41 27 32 5
-11 -16 -29 -16 -29 -52 -14 -42 18 -52 26 -38 31 6 2 26 12 45 23 49 26 53
25 35 -9z"/>
<path d="M2985 6300 c-3 -5 1 -10 9 -10 9 0 16 5 16 10 0 6 -4 10 -9 10 -6 0
-13 -4 -16 -10z"/>
<path d="M2890 6277 c0 -7 9 -13 20 -14 11 -1 20 0 20 2 0 2 -9 9 -20 15 -15
8 -20 8 -20 -3z"/>
<path d="M2945 6270 c-3 -5 1 -10 9 -10 8 0 18 5 21 10 3 6 -1 10 -9 10 -8 0
-18 -4 -21 -10z"/>
<path d="M3020 6270 c0 -5 7 -10 15 -10 8 0 15 5 15 10 0 6 -7 10 -15 10 -8 0
-15 -4 -15 -10z"/>
<path d="M3070 6272 c0 -4 9 -8 20 -9 11 -1 20 2 20 8 0 5 -9 9 -20 9 -11 0
-20 -4 -20 -8z"/>
<path d="M2880 6239 c0 -5 5 -7 10 -4 6 3 10 8 10 11 0 2 -4 4 -10 4 -5 0 -10
-5 -10 -11z"/>
<path d="M3112 6230 c7 -11 17 -20 22 -20 5 0 1 9 -9 20 -10 11 -20 20 -22 20
-2 0 2 -9 9 -20z"/>
<path d="M2855 6220 c-3 -5 -1 -10 4 -10 6 0 11 5 11 10 0 6 -2 10 -4 10 -3 0
-8 -4 -11 -10z"/>
<path d="M2810 6183 c0 -5 53 -7 117 -5 211 4 231 8 56 10 -95 1 -173 -1 -173
-5z"/>
<path d="M3166 6175 c5 -12 -18 -15 -158 -18 l-163 -3 167 -2 c91 -1 168 -5
171 -9 2 -5 2 -2 0 5 -1 8 -3 20 -3 28 0 8 -4 14 -10 14 -5 0 -7 -7 -4 -15z"/>
<path d="M2815 6149 c-11 -16 -1 -19 13 -3 7 8 8 14 3 14 -5 0 -13 -5 -16 -11z"/>
<path d="M1381 5913 c-7 -8 -11 -16 -8 -19 2 -2 10 2 17 11 17 20 9 27 -9 8z"/>
<path d="M1335 5880 c-3 -6 1 -7 9 -4 18 7 21 14 7 14 -6 0 -13 -4 -16 -10z"/>
<path d="M1516 5837 c3 -10 9 -15 12 -12 3 3 0 11 -7 18 -10 9 -11 8 -5 -6z"/>
<path d="M4597 5923 c-7 -10 61 -59 70 -50 3 4 -6 11 -20 16 -14 6 -30 17 -35
27 -5 9 -12 12 -15 7z"/>
<path d="M4491 5884 c0 -11 3 -14 6 -6 3 7 2 16 -1 19 -3 4 -6 -2 -5 -13z"/>
<path d="M3011 6523 c-1 -15 5 -23 17 -23 16 -1 16 -1 0 -14 -21 -15 -24 -42
-5 -49 9 -4 8 -8 -3 -16 -19 -13 -9 -23 10 -11 13 8 13 13 2 31 -12 18 -11 23
5 35 16 13 17 15 2 27 -9 6 -18 19 -22 27 -4 10 -6 8 -6 -7z"/>
<path d="M2150 6360 c-19 -12 -22 -63 -3 -56 14 6 14 5 18 -32 2 -16 -4 -26
-19 -32 -19 -8 -18 -9 7 -9 27 -1 28 1 26 41 -3 34 0 42 15 44 47 7 46 54 -1
54 -15 0 -35 -5 -43 -10z m70 -9 c0 -11 -25 -21 -56 -21 -25 0 -33 15 -11 23
21 9 67 7 67 -2z"/>
<path d="M3770 6352 c0 -10 4 -22 9 -27 5 -6 11 -21 14 -35 4 -24 4 -24 6 3 1
33 21 37 21 3 0 -67 -28 -120 -31 -58 -2 23 -2 24 -6 5 -5 -27 -9 -28 -58 -7
-20 8 -39 13 -41 11 -2 -2 38 -20 89 -40 110 -43 148 -55 90 -28 -46 22 -57
50 -20 52 17 1 18 2 4 6 -14 4 -17 13 -15 36 2 19 8 31 15 30 7 -2 10 4 7 12
-3 7 -20 15 -37 17 -17 2 -32 9 -35 16 -6 19 48 15 72 -5 21 -18 21 -18 2 5
-25 28 -86 32 -86 4z"/>
<path d="M2518 6343 c-32 -8 -19 -23 15 -16 63 12 14 -11 -243 -113 -253 -101
-302 -117 -270 -91 8 7 16 19 18 27 2 8 10 22 18 31 18 20 18 29 0 29 -8 0
-17 3 -19 8 -3 4 16 6 41 5 l47 -2 -45 10 c-25 5 -55 7 -68 4 -15 -4 -24 0
-29 10 -9 25 8 35 78 45 l64 9 -64 -4 c-41 -2 -69 -9 -80 -20 -15 -14 -15 -18
1 -45 16 -28 16 -29 -10 -39 -15 -6 -39 -13 -54 -17 -42 -9 -70 -47 -75 -101
l-4 -48 28 50 c25 44 33 50 72 57 23 4 53 10 65 14 17 5 19 4 9 -7 -7 -7 -13
-18 -13 -25 0 -16 30 -26 44 -15 12 10 376 157 451 182 50 17 75 37 68 55 -5
14 -14 15 -45 7z m-488 -158 c0 -19 -25 -31 -85 -40 -27 -4 -56 -12 -63 -17
-9 -8 -11 -7 -7 4 5 13 113 64 143 67 6 0 12 -6 12 -14z"/>
<path d="M3434 6336 c-7 -20 12 -46 34 -46 19 0 471 -178 490 -192 8 -7 12 -7
12 0 0 6 -116 56 -257 112 -238 94 -321 133 -250 116 16 -4 27 -2 27 4 0 5 -4
10 -9 10 -5 0 -16 3 -25 6 -10 4 -18 0 -22 -10z"/>
<path d="M2318 6333 c17 -2 47 -2 65 0 17 2 3 4 -33 4 -36 0 -50 -2 -32 -4z"/>
<path d="M3603 6333 c20 -2 54 -2 75 0 20 2 3 4 -38 4 -41 0 -58 -2 -37 -4z"/>
<path d="M2460 6310 c-8 -5 -10 -10 -5 -10 6 0 17 5 25 10 8 5 11 10 5 10 -5
0 -17 -5 -25 -10z"/>
<path d="M3579 6285 c47 -19 86 -33 88 -31 5 4 -148 66 -162 66 -5 -1 28 -16
74 -35z"/>
<path d="M2202 6275 c0 -16 2 -22 5 -12 2 9 2 23 0 30 -3 6 -5 -1 -5 -18z"/>
<path d="M2365 6273 c-64 -27 -86 -40 -45 -28 35 11 127 53 115 53 -5 0 -37
-11 -70 -25z"/>
<path d="M3928 6290 c35 -5 70 -14 77 -20 19 -16 7 -43 -17 -37 -11 3 -22 0
-25 -9 -3 -8 -10 -14 -15 -14 -6 0 -5 7 3 16 11 14 9 15 -27 8 -21 -3 -41 -8
-43 -10 -5 -4 29 -7 44 -4 6 1 7 -2 3 -6 -4 -4 1 -19 12 -34 26 -36 25 -43 -1
-30 -11 7 -23 9 -27 6 -3 -3 -3 -6 0 -6 3 0 22 -7 43 -16 35 -14 37 -14 31 1
-5 13 -2 16 10 11 9 -3 33 -9 55 -12 40 -7 89 -50 89 -80 0 -8 5 -14 10 -14
12 0 4 63 -12 92 -8 18 -58 48 -77 48 -5 0 -21 4 -36 10 -25 10 -25 10 -9 41
23 46 4 60 -82 65 l-69 3 63 -9z m77 -100 c3 -6 26 -15 50 -21 56 -14 85 -42
34 -33 -95 17 -136 34 -125 53 9 14 33 14 41 1z"/>
<path d="M2252 6229 c-13 -5 -28 -7 -33 -3 -5 3 -9 1 -9 -3 0 -8 -54 -35 -113
-55 -15 -6 -26 -12 -24 -15 5 -4 206 73 216 82 7 8 -12 5 -37 -6z"/>
<path d="M1544 6045 c-4 -9 -4 -19 0 -22 3 -4 6 2 6 13 0 17 3 16 21 -6 18
-22 19 -22 10 -3 -15 30 -30 37 -37 18z"/>
<path d="M2911 6024 c0 -11 3 -14 6 -6 3 7 2 16 -1 19 -3 4 -6 -2 -5 -13z"/>
<path d="M2941 6024 c0 -11 3 -14 6 -6 3 7 2 16 -1 19 -3 4 -6 -2 -5 -13z"/>
<path d="M3161 6024 c0 -11 3 -14 6 -6 3 7 2 16 -1 19 -3 4 -6 -2 -5 -13z"/>
<path d="M3606 5633 c-6 -14 -5 -15 5 -6 7 7 10 15 7 18 -3 3 -9 -2 -12 -12z"/>
<path d="M2410 5581 c5 -11 15 -23 21 -27 6 -3 3 5 -6 20 -20 30 -30 35 -15 7z"/>
<path d="M2365 5560 c10 -11 20 -20 23 -20 3 0 -3 9 -13 20 -10 11 -20 20 -23
20 -3 0 3 -9 13 -20z"/>
<path d="M2474 5555 c8 -16 31 -48 51 -70 l36 -40 -38 51 c-21 28 -44 60 -51
70 -7 11 -6 6 2 -11z"/>
<path d="M3549 5543 c-13 -16 -12 -17 4 -4 16 13 21 21 13 21 -2 0 -10 -8 -17
-17z"/>
<path d="M2400 5521 c0 -4 18 -22 40 -40 22 -17 40 -30 40 -28 0 2 -18 20 -40
40 -22 19 -40 32 -40 28z"/>
<path d="M3474 5498 l-19 -23 23 19 c21 18 27 26 19 26 -2 0 -12 -10 -23 -22z"/>
<path d="M3495 5478 l-40 -43 43 40 c23 21 42 40 42 42 0 8 -9 0 -45 -39z"/>
<path d="M3439 5453 c-13 -16 -12 -17 4 -4 9 7 17 15 17 17 0 8 -8 3 -21 -13z"/>
<path d="M2275 5440 c-14 -7 -10 -8 17 -4 32 5 37 3 40 -18 3 -22 4 -22 9 5 6
24 3 27 -20 26 -14 0 -35 -4 -46 -9z"/>
<path d="M3654 5441 c3 -4 17 -6 31 -3 23 4 25 1 26 -29 l1 -34 7 30 c4 17 2
33 -4 37 -14 11 -67 10 -61 -1z"/>
<path d="M2070 5410 c6 -11 13 -20 16 -20 2 0 0 9 -6 20 -6 11 -13 20 -16 20
-2 0 0 -9 6 -20z"/>
<path d="M2209 5403 l-24 -28 30 25 c17 14 32 26 34 28 2 1 0 2 -6 2 -5 0 -20
-12 -34 -27z"/>
<path d="M3652 5395 c0 -16 2 -22 5 -12 2 9 2 23 0 30 -3 6 -5 -1 -5 -18z"/>
<path d="M2282 5370 c0 -14 2 -19 5 -12 2 6 2 18 0 25 -3 6 -5 1 -5 -13z"/>
<path d="M2342 5365 c0 -16 2 -22 5 -12 2 9 2 23 0 30 -3 6 -5 -1 -5 -18z"/>
<path d="M3929 5373 c-13 -16 -12 -17 4 -4 9 7 17 15 17 17 0 8 -8 3 -21 -13z"/>
<path d="M2887 5323 c-2 -4 -15 -44 -27 -88 -13 -44 -27 -84 -32 -89 -15 -17
-9 -27 15 -24 19 3 21 8 19 36 -3 31 -2 33 25 30 23 -2 28 -8 28 -30 -1 -27 1
-28 51 -28 29 0 59 -2 67 -6 12 -4 13 4 9 47 -5 49 -4 51 16 40 14 -8 22 -23
24 -49 3 -32 6 -37 28 -37 16 0 26 6 28 17 2 13 -1 16 -12 12 -12 -5 -16 1
-16 24 0 17 -5 34 -10 37 -6 4 -4 12 5 21 18 19 20 58 2 72 -7 6 -35 13 -62
15 l-50 4 0 -91 c0 -74 -3 -91 -15 -91 -10 0 -25 30 -45 87 -31 89 -40 105
-48 91z m191 -47 c3 -26 -10 -45 -30 -46 -5 0 -8 18 -8 41 0 33 3 40 18 37 10
-2 18 -14 20 -32z m-178 -53 c0 -7 -7 -13 -16 -13 -11 0 -14 5 -10 16 3 9 6
21 6 27 0 16 20 -14 20 -30z"/>
<path d="M3197 5309 c-24 -14 -47 -62 -47 -98 0 -68 47 -110 109 -96 24 5 33
14 39 38 8 30 7 32 -22 39 -31 6 -53 -1 -28 -9 6 -3 12 -16 12 -29 0 -19 -5
-24 -25 -24 -31 0 -45 26 -45 82 0 48 22 88 49 88 22 0 41 -19 41 -42 0 -10 5
-18 10 -18 6 0 10 13 10 28 0 42 -60 66 -103 41z"/>
<path d="M2651 5273 c-6 -21 -15 -60 -21 -88 -6 -27 -13 -58 -16 -68 -5 -14
-1 -18 12 -15 13 2 18 13 18 38 1 31 4 35 26 35 22 0 25 -4 24 -32 -2 -31 -1
-32 30 -26 37 7 44 12 30 21 -6 4 -25 44 -44 90 -18 45 -37 82 -41 82 -5 0
-13 -17 -18 -37z m29 -65 c0 -5 -7 -8 -15 -8 -17 0 -18 2 -9 25 5 13 8 14 15
3 5 -7 9 -16 9 -20z"/>
<path d="M3343 5220 c-1 -45 -7 -88 -13 -95 -15 -18 -6 -21 66 -30 61 -7 61
-6 68 20 9 35 1 43 -14 16 -7 -14 -21 -21 -39 -21 -36 0 -38 3 -33 45 4 34 32
52 32 20 0 -8 5 -15 10 -15 6 0 10 19 10 42 0 39 -1 40 -14 22 -19 -25 -36 -8
-29 29 8 40 49 35 68 -8 8 -18 9 -17 13 8 2 16 2 31 -1 33 -2 2 -30 7 -63 10
l-59 6 -2 -82z"/>
<path d="M2438 5273 c-19 -5 -25 -23 -9 -23 12 0 26 -149 15 -160 -15 -15 -28
1 -73 83 -24 43 -47 75 -51 70 -5 -4 -13 -48 -19 -97 -11 -89 -23 -119 -40
-100 -13 15 -41 141 -35 158 9 22 -12 20 -36 -4 -16 -16 -20 -34 -20 -82 l0
-63 -31 50 c-42 67 -42 67 -73 59 -24 -6 -25 -8 -13 -23 17 -19 48 -149 38
-155 -30 -19 -82 35 -74 77 11 54 -35 72 -102 40 -33 -16 -46 -33 -26 -33 13
0 54 -127 47 -145 -10 -28 -31 -14 -85 56 -29 39 -56 67 -60 64 -7 -8 -8 -215
-1 -215 3 0 12 5 20 10 12 7 12 12 2 22 -19 19 -14 46 10 59 18 9 24 8 34 -6
7 -9 10 -23 7 -31 -7 -19 -5 -18 73 16 57 26 65 32 51 43 -9 6 -19 24 -23 40
-5 23 -3 27 15 27 14 0 25 -11 35 -35 16 -38 27 -43 46 -20 7 8 22 15 35 15
31 0 35 7 20 38 -7 15 -16 45 -19 67 l-7 40 37 -57 c19 -32 39 -58 44 -58 4 0
11 33 15 73 l7 72 14 -45 c8 -25 12 -55 9 -67 -3 -13 -4 -23 -2 -23 2 0 26 7
54 15 48 14 51 17 49 46 -1 41 28 63 49 36 7 -10 10 -27 7 -39 -3 -14 -1 -19
6 -14 6 4 46 13 89 21 95 18 123 43 123 109 0 66 -29 96 -88 95 -26 -1 -55 -3
-64 -6z m101 -32 c10 -17 15 -61 13 -99 -2 -21 -45 -52 -57 -41 -2 3 -9 38
-15 79 -8 54 -7 75 1 81 16 10 48 -1 58 -20z m-195 -102 c-11 -18 -24 -8 -24
19 1 26 1 26 15 8 8 -10 12 -23 9 -27z m-364 -58 c12 -23 4 -51 -15 -51 -14 0
-37 54 -28 64 12 12 33 5 43 -13z m-154 -140 c-13 -20 -26 -11 -26 16 0 25 1
26 16 11 9 -9 13 -21 10 -27z"/>
<path d="M3514 5264 c8 -22 -13 -164 -25 -164 -5 0 -9 -4 -9 -10 0 -5 10 -10
23 -10 20 0 23 4 19 33 -2 17 1 50 6 72 l9 40 18 -40 c9 -22 25 -59 35 -82 11
-24 23 -43 28 -43 9 0 32 104 32 144 0 9 7 19 15 22 22 9 8 24 -22 24 -19 0
-23 -3 -15 -13 12 -13 4 -97 -8 -97 -4 0 -18 26 -30 58 -27 67 -28 68 -59 77
-20 6 -23 5 -17 -11z"/>
<path d="M3697 5223 c-4 -3 -7 -16 -7 -27 1 -19 2 -19 11 -3 11 18 34 23 44 8
9 -15 -27 -145 -43 -157 -12 -9 -9 -13 18 -22 44 -16 55 -15 41 2 -11 13 0 84
24 153 6 19 35 4 35 -18 0 -10 5 -19 11 -19 6 0 9 12 7 27 -2 22 -12 29 -53
44 -55 19 -78 22 -88 12z"/>
<path d="M3865 5157 c8 -31 -21 -138 -41 -153 -12 -10 -9 -14 17 -23 18 -6 33
-11 34 -11 1 0 2 12 2 28 0 38 32 142 43 142 17 0 11 17 -7 23 -10 2 -26 8
-36 12 -15 6 -17 4 -12 -18z"/>
<path d="M3957 5129 c13 -13 -29 -148 -49 -160 -15 -9 -11 -14 18 -23 18 -5
21 -3 17 16 -2 13 5 48 15 78 l19 54 22 -97 c12 -53 26 -97 31 -97 5 0 20 36
35 79 14 44 32 82 38 85 9 3 8 8 -3 15 -24 17 -38 13 -33 -11 2 -13 -2 -41
-10 -63 l-14 -39 -18 74 c-17 74 -34 100 -64 100 -11 0 -12 -3 -4 -11z"/>
<path d="M2765 5059 c-321 -24 -637 -105 -866 -220 -54 -27 -101 -49 -104 -49
-3 0 -18 19 -35 42 -16 22 -30 38 -30 34 0 -5 10 -22 23 -39 15 -22 22 -46 22
-77 0 -42 2 -45 28 -48 18 -2 66 16 140 52 141 70 291 120 471 157 196 40 196
40 267 -25 32 -30 87 -69 121 -85 54 -26 60 -32 41 -37 -13 -4 -23 -10 -23
-14 0 -5 8 -6 19 -3 29 7 41 47 41 132 0 63 3 80 16 85 26 10 182 7 189 -4 3
-6 8 -49 11 -97 5 -86 14 -113 40 -113 7 0 15 -12 17 -27 l4 -28 2 28 c1 21
-4 30 -19 34 -32 9 -24 18 44 52 37 18 87 54 118 86 l53 54 100 -15 c220 -32
428 -95 599 -180 117 -58 161 -67 171 -34 3 11 3 29 0 40 -4 12 -1 29 6 38 12
16 11 16 -4 1 -16 -14 -27 -11 -130 41 -199 100 -492 181 -760 210 -142 15
-434 20 -572 9z m425 -19 c351 -25 642 -94 883 -209 93 -44 137 -76 137 -97 0
-31 -34 -24 -141 31 -585 299 -1602 294 -2166 -10 -89 -49 -108 -53 -117 -30
-8 23 24 50 111 93 343 171 829 254 1293 222z m-333 -92 c7 -12 5 -149 -2
-156 -14 -15 -215 124 -215 148 0 19 205 25 217 8z m470 -2 c18 -17 -130 -132
-194 -151 -22 -6 -23 -5 -23 73 0 43 3 82 8 86 8 10 199 2 209 -8z"/>
<path d="M4180 5023 c0 -5 -27 -37 -60 -72 -44 -47 -57 -67 -48 -73 20 -12 28
-9 28 11 0 25 14 34 40 26 22 -7 27 -44 9 -62 -8 -8 -4 -15 18 -26 l29 -15 3
109 c1 72 -1 109 -8 109 -6 0 -11 -3 -11 -7z m-10 -68 c0 -16 -6 -25 -15 -25
-18 0 -20 21 -3 38 17 17 18 16 18 -13z"/>
<path d="M4291 4948 c0 -10 -12 -42 -25 -73 -14 -30 -23 -55 -20 -55 10 0 55
113 51 129 -4 14 -5 14 -6 -1z"/>
<path d="M1711 4924 c0 -11 3 -14 6 -6 3 7 2 16 -1 19 -3 4 -6 -2 -5 -13z"/>
<path d="M2815 4710 c3 -5 8 -10 11 -10 2 0 4 5 4 10 0 6 -5 10 -11 10 -5 0
-7 -4 -4 -10z"/>
<path d="M2821 4656 c-1 -13 -7 -17 -23 -14 -22 4 -23 2 -23 -81 l0 -86 -35 0
-35 0 -3 83 -3 82 -169 0 -170 0 0 -85 0 -85 -36 0 -35 0 3 95 c2 59 0 91 -6
85 -6 -6 -85 -10 -178 -10 l-168 0 0 -75 0 -75 53 -1 c28 -1 77 -4 107 -8 35
-5 -28 -8 -179 -9 -128 -1 -235 -3 -237 -5 -2 -2 -4 -606 -4 -1343 0 -998 3
-1349 11 -1374 18 -53 46 -87 94 -115 75 -44 153 -54 490 -58 276 -4 320 -6
399 -26 113 -27 197 -71 261 -137 l51 -51 50 51 c63 65 145 108 259 137 80 20
119 23 355 25 146 2 302 5 348 9 139 9 238 60 274 142 19 42 19 79 18 1390 0
741 -2 1348 -4 1350 -2 2 -109 5 -237 5 -152 1 -213 4 -174 9 33 4 85 7 115 8
l55 1 -3 75 -4 75 -167 0 c-119 0 -171 4 -181 13 -12 10 -12 9 -2 -5 9 -10 12
-43 10 -95 l-3 -78 -35 0 -35 0 0 85 0 85 -163 -3 c-96 -2 -169 1 -175 7 -9 7
-11 -14 -9 -85 l3 -94 -35 0 -36 0 0 83 c0 51 5 88 12 95 9 9 9 12 1 12 -7 0
-15 -4 -18 -10 -4 -6 -78 -10 -190 -10 -166 0 -184 2 -188 18 -4 15 -5 15 -6
-2z m199 -321 c21 -23 23 -29 13 -56 -10 -26 -10 -29 2 -19 39 32 90 -22 65
-69 -14 -26 -26 -27 -33 -1 -8 31 -35 14 -43 -26 -5 -27 -11 -34 -29 -34 -18
0 -25 7 -30 29 -10 49 -55 68 -55 24 0 -13 -3 -13 -15 -3 -18 15 -20 61 -3 78
17 17 38 15 61 -5 19 -17 20 -17 8 4 -16 31 -14 63 6 85 21 23 25 23 53 -7z
m-30 -236 c0 -32 -21 -47 -81 -53 -61 -7 -189 -42 -189 -52 0 -3 32 -78 71
-167 73 -165 79 -189 65 -266 -7 -35 -5 -42 5 -38 8 3 39 14 69 23 30 10 56
19 58 20 2 1 3 102 2 223 0 122 2 244 6 271 l7 50 44 0 c78 0 185 -30 293 -83
93 -45 116 -62 200 -146 74 -74 105 -114 137 -176 52 -101 82 -199 90 -292 5
-67 4 -73 -13 -73 -33 0 -40 13 -52 90 -12 81 -27 137 -41 158 -6 11 -45 -2
-176 -57 -92 -39 -177 -71 -189 -71 -11 0 -45 7 -73 14 -29 8 -53 12 -53 10 0
-2 9 -21 20 -42 11 -20 23 -54 26 -74 l7 -38 261 -1 c143 -1 267 0 275 1 21 3
7 -129 -24 -226 -41 -129 -96 -218 -199 -319 -100 -99 -192 -155 -321 -194
-75 -23 -215 -39 -215 -25 1 44 12 52 78 59 37 4 95 16 130 27 51 15 63 23 59
36 -3 9 -35 85 -71 169 -37 83 -69 162 -71 174 -3 13 2 47 9 76 8 29 13 53 13
53 -1 0 -24 -11 -51 -25 -27 -14 -62 -25 -78 -25 l-28 0 0 -276 0 -277 -76 6
c-269 23 -529 214 -636 468 -47 113 -60 187 -55 333 3 114 7 142 34 218 88
253 297 445 550 507 87 22 183 27 183 10z m-1215 -1637 c17 -8 55 -35 85 -60
65 -53 106 -72 155 -72 45 0 81 18 170 85 83 62 128 80 178 71 34 -6 55 -19
182 -110 40 -29 67 -40 103 -44 57 -5 84 7 191 84 129 94 177 94 298 1 88 -67
128 -87 176 -87 47 0 81 17 180 91 121 91 169 90 297 -7 150 -113 191 -113
341 -3 37 27 83 56 103 64 l36 15 0 -78 0 -78 -35 -13 c-20 -7 -66 -36 -103
-64 -147 -113 -195 -114 -330 -8 -82 65 -126 84 -179 78 -44 -5 -62 -15 -204
-116 -87 -62 -146 -54 -261 35 -140 109 -197 109 -335 3 -141 -108 -182 -106
-341 15 -106 81 -169 86 -259 21 -129 -93 -154 -108 -196 -112 -52 -6 -82 7
-181 83 -39 30 -88 60 -108 66 l-38 11 0 79 c0 88 0 88 75 50z m24 -327 c20
-14 64 -45 99 -70 55 -39 70 -45 113 -45 59 0 79 10 178 84 126 95 175 95 300
1 96 -73 124 -87 176 -87 51 0 65 7 170 82 142 102 189 101 325 -10 64 -53
108 -73 157 -72 52 1 79 15 174 87 126 95 168 94 302 -3 107 -77 121 -84 172
-84 50 0 88 18 165 77 57 44 111 75 130 75 6 0 10 -29 10 -74 l0 -74 -32 -11
c-18 -6 -64 -35 -103 -65 -111 -84 -116 -86 -170 -86 -55 0 -73 9 -178 88
-119 91 -175 91 -295 0 -103 -78 -122 -88 -176 -88 -53 0 -79 13 -183 92 -116
87 -171 87 -291 -4 -104 -79 -122 -88 -177 -88 -55 0 -73 9 -177 88 -125 95
-171 93 -313 -13 -119 -89 -182 -97 -267 -36 -24 17 -65 47 -92 66 -26 19 -62
39 -80 43 l-31 8 -3 82 -3 81 32 -9 c18 -5 48 -21 68 -35z m6 -331 c28 -19 72
-50 98 -69 94 -66 147 -59 280 39 135 100 179 100 314 0 138 -102 186 -106
296 -29 34 25 79 57 100 72 26 18 55 28 90 31 56 4 57 4 220 -113 93 -67 150
-59 282 40 132 98 179 99 304 4 156 -117 192 -117 354 -1 45 33 92 63 105 67
20 6 22 3 22 -34 0 -136 -121 -209 -352 -212 l-93 -1 -68 46 c-100 67 -151 64
-265 -18 -34 -24 -64 -34 -145 -48 -56 -9 -107 -17 -114 -18 -6 0 -40 22 -75
49 -148 113 -185 111 -363 -18 l-47 -33 -107 18 c-86 14 -115 24 -151 50 -123
87 -182 87 -297 -1 -41 -31 -44 -32 -130 -28 -141 5 -206 21 -272 63 -63 41
-91 89 -91 156 0 34 1 36 28 30 15 -4 50 -23 77 -42z m1255 -289 c17 -9 30
-17 30 -20 0 -2 -23 -26 -52 -53 l-52 -50 -53 51 -52 52 32 17 c40 21 109 23
147 3z"/>
<path d="M2980 4175 c0 -19 5 -35 10 -35 6 0 10 16 10 35 0 19 -4 35 -10 35
-5 0 -10 -16 -10 -35z"/>
<path d="M3010 4045 c0 -14 92 -371 99 -383 5 -9 32 44 76 150 65 156 85 196
85 171 0 -18 -131 -327 -145 -341 -9 -11 -9 -26 3 -78 9 -35 19 -63 23 -62 4
2 85 79 179 172 l172 170 -33 28 c-101 84 -210 139 -329 164 -67 14 -130 18
-130 9z"/>
<path d="M2630 3953 c-105 -62 -252 -224 -284 -313 -4 -11 34 -32 161 -86 92
-40 169 -77 171 -82 2 -6 -74 23 -169 64 -95 40 -174 74 -175 74 -9 0 -45
-140 -50 -197 -7 -62 -6 -66 12 -61 10 2 135 34 276 69 142 35 258 67 258 71
0 3 -76 80 -170 170 -93 90 -170 167 -170 171 0 8 25 -5 227 -125 73 -43 135
-78 137 -78 6 0 -148 359 -154 360 -3 0 -34 -17 -70 -37z"/>
<path d="M3402 3654 c-57 -97 -102 -177 -100 -179 2 -2 75 28 163 65 88 38
166 69 173 70 6 0 12 3 12 8 -1 25 -125 213 -140 211 -3 0 -51 -79 -108 -175z"/>
<path d="M2240 3332 c0 -5 8 -12 19 -15 14 -3 20 -18 25 -67 6 -52 42 -190 49
-190 1 0 77 32 167 71 170 73 195 78 268 58 23 -6 45 -10 47 -7 2 2 -7 26 -20
53 -14 26 -25 59 -25 72 l0 23 -249 0 c-137 0 -256 3 -265 6 -9 3 -16 2 -16
-4z"/>
<path d="M3508 3266 c-109 -27 -198 -52 -198 -55 1 -5 292 -132 340 -149 16
-6 67 204 58 241 -2 11 -42 4 -200 -37z"/>
<path d="M3255 3205 c-5 -2 -29 -9 -53 -15 -24 -6 -42 -14 -40 -18 2 -4 80
-83 174 -175 l172 -168 44 58 c45 59 103 153 96 157 -1 1 -75 33 -163 70 -88
38 -170 74 -182 82 -22 14 -30 15 -48 9z"/>
<path d="M2508 3116 c-128 -54 -166 -75 -162 -86 9 -28 66 -116 98 -155 l32
-37 103 172 c56 94 101 173 99 174 -1 1 -78 -29 -170 -68z"/>
<path d="M2660 2999 l-175 -169 43 -38 c41 -37 129 -94 163 -107 12 -5 31 29
88 167 40 95 77 176 83 179 7 5 -15 125 -25 136 -1 1 -81 -75 -177 -168z"/>
<path d="M3143 3018 c3 -7 31 -71 62 -143 31 -71 63 -145 71 -164 l14 -33 47
28 c57 33 153 104 153 113 0 3 -31 24 -68 46 -230 135 -284 164 -279 153z"/>
<path d="M2868 3015 c-3 -6 -32 -71 -63 -145 -32 -74 -64 -149 -71 -167 l-14
-32 63 -20 c34 -10 92 -22 129 -26 l66 -7 -49 193 c-60 235 -54 215 -61 204z"/>
<path d="M1848 4643 c-16 -2 -28 -7 -29 -11 0 -4 -2 -16 -5 -27 -8 -43 19
-105 46 -105 5 0 10 34 12 75 2 41 3 74 3 74 0 -1 -12 -4 -27 -6z"/>
<path d="M4107 4637 c3 -5 5 -35 4 -68 0 -32 3 -60 8 -64 18 -10 41 39 41 86
0 44 -2 47 -29 51 -17 3 -27 0 -24 -5z"/>
<path d="M1580 2241 c0 -6 4 -13 10 -16 6 -3 7 1 4 9 -7 18 -14 21 -14 7z"/>
<path d="M4894 1644 c-18 -15 -18 -15 4 -9 22 6 21 3 -18 -106 -21 -62 -38
-115 -36 -116 2 -2 14 25 26 59 13 35 34 91 46 126 24 65 18 78 -22 46z"/>
<path d="M1165 1633 c4 -10 16 -44 27 -76 11 -32 22 -56 24 -54 2 2 -6 32 -17
66 -12 34 -19 64 -17 67 3 2 43 -12 89 -32 46 -20 143 -58 214 -86 72 -27 140
-56 153 -64 12 -8 22 -10 22 -5 0 11 -43 32 -150 71 -47 17 -137 54 -202 81
-126 53 -154 60 -143 32z"/>
<path d="M4763 1590 c-34 -16 -125 -52 -202 -80 -78 -29 -141 -57 -141 -62 0
-5 9 -4 20 2 10 6 57 23 102 40 126 44 326 129 303 129 -11 0 -48 -13 -82 -29z"/>
<path d="M2125 1550 c3 -5 11 -10 16 -10 6 0 7 5 4 10 -3 6 -11 10 -16 10 -6
0 -7 -4 -4 -10z"/>
<path d="M3830 1550 c-9 -6 -10 -10 -3 -10 6 0 15 5 18 10 8 12 4 12 -15 0z"/>
<path d="M2027 1542 c-3 -4 8 -17 26 -27 18 -10 25 -12 17 -4 -8 8 -20 20 -27
27 -6 7 -14 9 -16 4z"/>
<path d="M1651 1417 c-6 -8 -45 -24 -86 -36 -98 -29 -119 -47 -134 -114 -28
-125 -30 -129 -59 -122 -62 15 -312 127 -305 137 3 7 1 8 -5 4 -7 -4 -12 -9
-12 -11 0 -8 100 -55 213 -101 61 -24 119 -49 128 -53 12 -7 18 0 28 38 6 25
16 62 21 81 l10 36 142 -48 c336 -111 686 -186 1046 -222 150 -16 311 -21 300
-11 -3 3 -59 8 -124 10 -290 10 -677 76 -1036 177 -169 47 -159 34 -128 163
10 44 17 81 16 83 -2 1 -8 -4 -15 -11z m-139 -84 c-6 -2 -9 -10 -6 -15 4 -7 2
-8 -5 -4 -6 4 -18 4 -24 -1 -7 -4 -4 0 6 10 11 9 24 17 31 16 7 0 6 -2 -2 -6z
m97 -86 c0 -9 -2 -8 -6 1 -2 6 -10 9 -15 6 -7 -4 -8 -2 -4 5 9 13 26 5 25 -12z"/>
<path d="M1764 1398 l-19 -23 23 19 c21 18 27 26 19 26 -2 0 -12 -10 -23 -22z"/>
<path d="M4212 1380 c12 -16 25 -30 30 -30 4 0 -4 14 -19 30 -14 17 -28 30
-30 30 -2 0 6 -13 19 -30z"/>
<path d="M4410 1397 c0 -7 9 -48 19 -92 11 -44 17 -83 13 -86 -7 -7 -176 -55
-307 -88 -255 -64 -608 -117 -868 -130 -134 -7 -141 -8 -57 -9 306 -5 852 91
1255 222 77 25 144 46 150 48 9 3 95 -309 95 -349 0 -29 -23 -40 -180 -91
-452 -146 -884 -219 -1370 -229 -586 -12 -1079 62 -1646 248 -171 56 -163 47
-136 159 12 51 21 95 19 97 -5 4 -47 -157 -47 -179 0 -25 36 -45 152 -84 597
-201 1298 -296 1843 -249 225 20 311 29 450 51 256 41 464 89 687 160 62 20
133 42 156 49 52 16 82 41 82 67 0 10 -10 57 -21 104 -13 49 -18 89 -13 93 5
4 65 31 134 59 224 91 265 111 250 125 -10 9 -13 9 -17 -1 -7 -17 -58 -42
-229 -112 -99 -41 -146 -55 -150 -47 -2 7 -15 52 -29 101 -13 49 -30 93 -37
98 -7 4 -33 15 -58 24 -25 8 -66 24 -92 34 -33 12 -48 15 -48 7z m37 -59 c-3
-7 -5 -2 -5 12 0 14 2 19 5 13 2 -7 2 -19 0 -25z m66 5 c-7 -2 -21 -2 -30 0
-10 3 -4 5 12 5 17 0 24 -2 18 -5z m71 -22 c3 -5 -2 -15 -12 -22 -15 -13 -16
-12 -4 3 10 13 10 17 0 21 -9 4 -9 6 -1 6 6 1 14 -3 17 -8z m12 -37 c-11 -8
-27 -14 -35 -13 -9 0 -4 5 12 11 15 5 27 15 27 21 0 5 3 7 7 3 5 -4 -1 -14
-11 -22z m-129 -36 c-3 -8 -6 -5 -6 6 -1 11 2 17 5 13 3 -3 4 -12 1 -19z"/>
<path d="M4836 1389 c6 -10 37 -24 138 -65 33 -13 61 -22 63 -20 3 2 -20 13
-50 24 -30 12 -78 32 -106 46 -28 13 -49 20 -45 15z"/>
<path d="M1870 1386 c0 -2 8 -10 18 -17 15 -13 16 -12 3 4 -13 16 -21 21 -21
13z"/>
<path d="M1125 1316 c-66 -32 -54 -32 21 -1 32 13 52 24 44 24 -8 1 -37 -10
-65 -23z"/>
<path d="M2328 1223 c7 -3 16 -2 19 1 4 3 -2 6 -13 5 -11 0 -14 -3 -6 -6z"/>
<path d="M3628 1223 c7 -3 16 -2 19 1 4 3 -2 6 -13 5 -11 0 -14 -3 -6 -6z"/>
<path d="M1484 1193 c9 -22 -42 -240 -60 -258 -8 -7 -14 -16 -14 -18 0 -11
102 -39 110 -31 5 5 12 29 15 54 l6 45 -18 -34 c-20 -38 -31 -45 -52 -32 -11
7 -11 18 0 65 15 68 36 78 30 14 -1 -10 0 -18 4 -18 8 0 21 38 29 85 l7 40
-19 -24 c-26 -32 -33 -16 -19 42 9 40 14 47 31 45 16 -2 22 -12 26 -43 5 -36
6 -37 13 -15 15 52 9 69 -29 85 -49 20 -68 20 -60 -2z"/>
<path d="M4528 1188 c-25 -9 -40 -38 -20 -38 9 0 42 -187 42 -235 0 -19 -4
-26 -17 -23 -11 2 -28 39 -55 118 -21 63 -41 122 -45 130 -4 8 -12 -52 -17
-135 -9 -123 -14 -150 -27 -153 -13 -2 -18 18 -30 118 -8 67 -11 123 -7 126
15 10 8 24 -12 24 -27 0 -28 -6 -38 -125 l-8 -100 -28 90 c-15 50 -31 94 -36
98 -4 5 -18 4 -30 -3 -19 -10 -20 -13 -7 -23 17 -13 41 -216 31 -255 -5 -19
-3 -21 12 -16 33 12 36 16 21 32 -9 10 -17 49 -20 97 -7 86 -3 82 33 -43 12
-40 25 -70 29 -67 5 2 12 53 16 112 7 89 10 101 15 68 13 -72 17 -145 9 -145
-5 0 -9 -4 -9 -10 0 -13 39 -13 79 1 31 11 39 23 23 33 -15 9 2 81 19 84 21 4
44 -55 29 -73 -17 -21 -1 -23 53 -8 60 17 78 30 59 41 -15 10 -34 104 -22 116
15 15 29 -4 41 -60 13 -59 21 -69 46 -60 13 5 13 9 2 22 -24 30 -48 118 -42
159 7 51 -18 115 -44 114 -10 0 -30 -5 -45 -11z m50 -30 c15 -15 16 -94 1
-103 -15 -10 -20 -1 -30 51 -11 60 0 81 29 52z m-124 -165 c6 -17 3 -23 -8
-23 -12 0 -16 10 -16 38 1 38 10 32 24 -15z"/>
<path d="M1627 1157 c-25 -19 -48 -84 -41 -115 4 -15 15 -41 26 -59 14 -24 17
-41 12 -68 -12 -67 -53 -55 -54 15 -1 29 -2 32 -11 17 -16 -27 -7 -78 17 -94
19 -12 24 -11 44 5 35 28 40 112 10 168 -20 35 -22 48 -14 75 14 47 38 44 44
-6 l6 -40 12 39 c12 43 10 51 -17 66 -12 6 -23 5 -34 -3z"/>
<path d="M1731 1106 c-22 -23 -61 -146 -61 -190 0 -44 20 -93 43 -103 36 -15
54 -5 62 34 8 43 -1 55 -14 20 -22 -57 -61 -39 -61 28 0 58 29 182 46 196 24
20 44 3 44 -38 0 -28 3 -34 10 -23 17 27 12 78 -9 90 -28 14 -35 13 -60 -14z"/>
<path d="M1835 1068 c3 -18 -1 -66 -9 -106 -20 -93 -20 -142 0 -170 37 -54 80
-11 95 95 21 147 24 158 39 158 11 0 15 -12 14 -50 -2 -86 -22 -207 -35 -216
-8 -4 -11 -11 -7 -14 10 -11 108 -34 112 -27 2 4 7 30 10 57 l7 50 -18 -35
c-12 -23 -27 -36 -42 -38 -24 -4 -24 -3 -17 54 4 32 8 60 11 62 9 9 25 -11 26
-31 2 -28 18 49 18 83 l0 25 -11 -22 c-19 -39 -31 -26 -26 27 6 60 10 65 37
50 14 -7 21 -21 22 -43 0 -27 2 -29 9 -12 5 11 9 32 9 47 1 23 -5 29 -36 37
-21 6 -46 11 -56 11 -10 0 -27 5 -38 10 -24 14 -44 4 -30 -14 13 -15 -19 -230
-37 -248 -24 -24 -42 0 -42 54 0 56 16 158 32 197 6 17 5 27 -4 32 -28 18 -39
10 -33 -23z"/>
<path d="M4028 1043 c-20 -5 -24 -19 -7 -25 14 -5 32 -179 25 -235 -6 -48 -8
-48 54 -29 44 13 45 14 48 60 3 51 -15 65 -20 15 -3 -29 -30 -60 -42 -48 -9 9
-28 220 -22 245 6 24 1 27 -36 17z"/>
<path d="M2104 1014 c9 -34 -12 -245 -26 -261 -17 -20 -1 -29 73 -42 88 -15
94 -15 79 4 -12 15 -6 70 10 80 29 18 61 -60 36 -85 -13 -13 9 -30 37 -30 19
0 23 15 7 25 -5 3 -10 23 -10 43 0 70 -23 253 -31 245 -5 -5 -15 -37 -24 -73
-26 -103 -56 -190 -66 -190 -5 0 -6 18 -3 43 7 42 -10 45 -18 3 -4 -25 -34
-44 -47 -31 -14 14 13 245 29 255 18 11 5 27 -26 33 -23 4 -25 2 -20 -19z
m176 -166 c0 -19 -5 -28 -16 -28 -12 0 -15 6 -10 23 3 12 6 31 6 42 0 32 20
-4 20 -37z"/>
<path d="M3920 1023 c-33 -6 -49 -21 -33 -31 19 -12 39 -238 23 -257 -19 -23
-10 -25 50 -12 l55 12 3 54 c2 35 0 51 -7 46 -6 -3 -11 -19 -11 -34 0 -31 -16
-51 -42 -51 -15 0 -18 9 -18 55 0 57 14 72 30 33 7 -18 9 -10 9 34 1 31 -3 60
-9 63 -6 4 -10 -5 -10 -19 0 -16 -6 -26 -15 -26 -12 0 -15 13 -15 55 0 52 1
55 25 55 19 0 26 -7 34 -32 9 -32 9 -32 10 15 1 45 0 47 -26 46 -16 -1 -39 -4
-53 -6z"/>
<path d="M3000 1000 l-45 -7 58 -1 c37 -1 56 2 52 8 -3 6 -9 9 -13 8 -4 0 -27
-4 -52 -8z"/>
<path d="M3770 993 c-8 -2 -21 -6 -28 -9 -10 -3 -10 -8 2 -26 16 -26 29 -248
15 -248 -5 0 -9 -5 -9 -11 0 -15 75 -6 95 11 24 20 38 90 32 157 -10 107 -44
147 -107 126z m67 -63 c15 -44 17 -165 3 -191 -6 -10 -20 -19 -30 -19 -17 0
-20 7 -20 48 0 27 -3 84 -7 126 l-6 78 24 -4 c17 -2 27 -13 36 -38z"/>
<path d="M2406 971 c-4 -5 -1 -13 5 -17 15 -9 2 -243 -14 -262 -25 -31 68 -45
96 -14 21 23 36 93 37 167 0 73 -26 125 -64 125 -13 0 -31 3 -39 6 -8 3 -18 1
-21 -5z m85 -47 c9 -11 13 -41 12 -93 -3 -106 -13 -135 -47 -139 l-27 -3 6
103 c3 57 8 113 11 126 5 26 26 29 45 6z"/>
<path d="M3592 945 c-7 -14 -12 -44 -12 -66 0 -33 7 -46 40 -79 43 -42 50 -73
25 -106 -15 -19 -15 -19 -30 0 -8 11 -15 28 -15 38 0 10 -5 18 -11 18 -7 0 -9
-9 -5 -22 3 -13 6 -33 6 -45 0 -19 6 -23 29 -23 40 0 61 32 61 92 0 42 -5 52
-40 87 -41 40 -51 76 -28 99 18 18 25 15 39 -20 l13 -33 3 28 c6 42 -3 57 -35
57 -21 0 -32 -7 -40 -25z"/>
<path d="M2554 948 c-4 -6 -1 -14 6 -18 15 -9 4 -237 -13 -258 -15 -19 -3 -25
58 -30 l55 -4 -1 53 c-1 53 -1 54 -12 22 -18 -49 -34 -61 -53 -41 -13 12 -15
27 -9 67 8 56 21 66 32 24 7 -27 7 -27 14 12 11 55 11 75 0 75 -5 0 -11 -9
-14 -21 -10 -36 -27 -10 -27 41 0 55 5 61 38 49 15 -6 22 -17 22 -34 0 -14 5
-25 10 -25 15 0 12 80 -2 84 -34 11 -99 13 -104 4z"/>
<path d="M3490 946 c0 -35 -42 -272 -50 -280 -24 -24 -32 13 -28 143 l3 131
-27 0 c-29 0 -35 -9 -19 -25 14 -15 25 -255 12 -255 -6 0 -11 -7 -11 -16 0
-12 6 -15 23 -10 12 3 37 6 55 6 32 0 33 1 27 34 -9 45 2 76 25 76 23 0 35
-37 26 -75 -6 -22 -3 -25 18 -25 28 0 45 18 27 29 -6 4 -23 66 -38 139 -15 73
-31 132 -35 132 -4 0 -8 -2 -8 -4z m19 -153 c1 -15 -5 -23 -15 -23 -11 0 -14
5 -10 16 3 9 6 30 7 47 1 31 1 31 9 7 4 -14 8 -35 9 -47z"/>
<path d="M2776 921 c-39 -43 -50 -197 -18 -261 15 -30 22 -35 52 -35 l35 0 2
50 c2 45 1 47 -8 19 -11 -39 -36 -61 -51 -46 -19 19 -28 100 -19 171 10 80 15
91 41 91 13 0 22 -10 28 -32 l9 -33 5 33 c8 56 -40 83 -76 43z"/>
<path d="M3265 916 c-55 -83 -30 -296 34 -296 42 0 51 11 50 59 l-1 46 -11
-32 c-35 -94 -76 -40 -77 99 0 86 27 141 57 116 7 -6 13 -19 13 -29 0 -11 5
-19 10 -19 13 0 13 36 0 61 -15 27 -56 24 -75 -5z"/>
<path d="M2870 920 c0 -5 5 -12 10 -15 6 -4 10 -58 10 -130 0 -72 -4 -126 -10
-130 -20 -12 -9 -25 20 -25 31 0 37 9 19 27 -15 15 -8 238 8 254 26 26 33 -3
33 -131 0 -94 -3 -130 -12 -133 -23 -8 -4 -15 52 -18 l55 -4 2 55 2 55 -15
-42 c-13 -35 -20 -43 -40 -43 -23 0 -24 3 -24 60 0 45 4 60 14 60 8 0 19 -12
24 -27 9 -23 10 -16 10 42 0 59 -1 66 -10 42 -12 -33 -34 -31 -32 4 1 13 2 36
3 52 2 40 37 37 56 -5 l14 -33 -2 45 -2 45 -92 2 c-51 1 -93 -2 -93 -7z"/>
<path d="M3087 923 c-14 -4 -16 -8 -7 -18 8 -9 10 -59 8 -149 -3 -135 -3 -136
20 -136 12 0 22 5 22 10 0 6 -4 10 -10 10 -6 0 -10 44 -10 113 l1 112 42 -125
42 -125 3 140 c1 77 7 144 12 149 17 17 11 26 -15 26 -27 0 -32 -9 -15 -26 6
-6 10 -44 8 -90 l-3 -79 -30 94 c-31 95 -35 102 -68 94z"/>
</g>
</svg>
