<?xml version="1.0" standalone="no"?>
<!DOCTYPE svg PUBLIC "-//W3C//DTD SVG 20010904//EN"
 "http://www.w3.org/TR/2001/REC-SVG-20010904/DTD/svg10.dtd">
<svg version="1.0" xmlns="http://www.w3.org/2000/svg"
 width="178.000000pt" height="283.000000pt" viewBox="0 0 178.000000 283.000000"
 preserveAspectRatio="xMidYMid meet">

<g transform="translate(0.000000,283.000000) scale(0.100000,-0.100000)"
fill="#000000" stroke="none">
<path d="M0 1950 l0 -880 890 0 890 0 0 880 0 880 -890 0 -890 0 0 -880z m893
779 c52 -14 117 -74 117 -108 0 -20 12 -33 51 -59 28 -18 58 -47 67 -63 l17
-31 128 4 127 4 0 -27 c0 -34 -4 -35 -145 -50 -106 -11 -111 -12 -137 -44 -17
-20 -59 -46 -113 -71 -78 -35 -85 -41 -85 -66 0 -16 9 -42 21 -57 16 -22 20
-40 18 -75 -4 -46 -4 -46 14 -24 18 23 18 23 14 -24 -3 -30 -14 -60 -30 -81
l-25 -33 28 4 c16 2 55 -6 87 -19 32 -12 83 -25 113 -28 l55 -6 32 -125 c51
-197 50 -180 12 -180 -17 0 -77 14 -132 31 -123 38 -183 37 -226 -5 -32 -31
-47 -33 -60 -7 -26 48 -118 52 -255 11 -55 -17 -112 -30 -127 -30 l-27 0 30
118 c16 64 33 133 39 153 l9 37 65 4 c35 2 67 7 71 10 3 4 -3 19 -14 33 -27
34 -37 104 -22 150 18 55 59 96 127 127 l63 28 0 65 c0 77 25 68 -245 95 -110
11 -206 23 -212 25 -7 2 -13 16 -13 31 l0 26 230 -7 c161 -6 230 -5 230 3 0 6
8 13 18 16 25 8 24 36 -1 36 -22 0 -52 32 -73 78 -28 63 23 126 116 141 3 1
22 -4 43 -10z m-559 -954 c5 -29 21 -63 47 -97 43 -58 50 -88 19 -88 -29 0
-25 -21 16 -76 85 -113 127 -146 219 -170 111 -30 128 -16 144 116 6 46 11 86
11 87 0 2 33 3 74 3 85 0 78 8 92 -115 8 -72 27 -105 61 -105 36 0 146 30 167
45 18 14 18 16 -4 72 -13 32 -32 68 -43 81 l-20 22 25 0 c31 0 44 -15 67 -75
10 -25 22 -47 26 -48 14 -3 115 126 115 146 0 10 -8 17 -20 17 -29 0 -25 24
15 75 19 25 40 65 46 88 21 77 18 74 44 44 23 -26 65 -140 65 -177 0 -21 -17
-36 -50 -45 -18 -4 -35 -24 -59 -72 -19 -36 -56 -87 -83 -114 l-48 -49 15 -37
c12 -29 13 -38 3 -45 -21 -13 -26 -10 -38 26 l-11 33 -87 -33 c-48 -18 -96
-33 -107 -34 -11 0 -53 -16 -93 -35 l-72 -34 -65 29 c-36 16 -84 34 -108 40
-23 6 -76 23 -117 38 -94 34 -190 120 -238 213 -26 50 -40 66 -72 80 -22 10
-40 25 -40 32 0 50 67 207 89 207 5 0 12 -20 15 -45z"/>
<path d="M813 2668 c-58 -28 -24 -92 46 -86 33 3 36 6 42 41 5 30 2 40 -12 47
-22 13 -48 12 -76 -2z"/>
<path d="M943 2540 c-3 -11 -14 -20 -24 -20 -24 0 -24 -22 -1 -43 30 -27 192
-18 174 9 -4 6 -27 25 -51 42 -51 37 -90 42 -98 12z"/>
<path d="M973 2368 c-52 -9 -53 -10 -53 -44 0 -19 2 -34 5 -34 10 0 165 80
165 85 0 7 -58 4 -117 -7z"/>
<path d="M735 2157 c-67 -36 -95 -77 -95 -138 0 -36 38 -106 56 -102 5 1 25 8
45 16 34 12 36 14 23 32 -22 29 -17 88 10 127 22 32 40 98 27 98 -3 0 -33 -15
-66 -33z"/>
<path d="M690 891 l0 -49 -47 -7 c-25 -4 -57 -13 -69 -22 -59 -38 -56 -170 5
-203 29 -15 72 -12 93 6 16 16 18 16 24 0 4 -10 18 -16 35 -16 l29 0 0 170 0
170 -35 0 -35 0 0 -49z m-2 -168 c-3 -52 -5 -58 -26 -61 -34 -5 -52 15 -52 57
0 44 14 61 52 61 29 0 29 0 26 -57z"/>
<path d="M0 760 l0 -160 40 0 40 0 0 60 0 60 65 0 65 0 0 30 0 30 -65 0 -65 0
0 40 0 40 75 0 75 0 0 30 0 30 -115 0 -115 0 0 -160z"/>
<path d="M860 778 c-23 -79 -45 -151 -48 -160 -3 -15 2 -18 31 -18 34 0 37 3
47 40 l11 40 59 0 59 0 12 -40 c11 -37 15 -40 50 -40 l37 0 -39 123 c-21 67
-44 139 -49 160 l-11 37 -58 0 -57 0 -44 -142z m134 -12 c6 -25 4 -26 -35 -26
-32 0 -40 3 -36 14 3 8 11 34 17 58 7 24 15 47 18 52 5 8 19 -29 36 -98z"/>
<path d="M1188 913 l-28 -4 0 -155 0 -154 40 0 40 0 0 59 c0 53 2 59 19 54 11
-3 36 -29 55 -59 34 -50 39 -54 76 -54 l41 0 -41 61 -42 60 25 25 c46 46 43
111 -6 148 -28 20 -117 30 -179 19z m115 -52 c55 -21 33 -91 -29 -91 -34 0
-34 0 -34 44 0 53 16 65 63 47z"/>
<path d="M1511 778 c-24 -79 -46 -151 -48 -160 -4 -15 1 -18 30 -18 34 0 37 3
47 40 l11 41 62 -3 61 -3 9 -37 c8 -36 11 -38 47 -38 l38 0 -23 73 c-13 39
-35 111 -50 160 l-26 87 -57 0 -57 0 -44 -142z m133 -12 c6 -25 4 -26 -34 -26
-22 0 -40 1 -40 3 0 3 26 84 37 117 5 14 19 -23 37 -94z"/>
<path d="M323 833 c-27 -3 -33 -9 -33 -29 0 -22 4 -24 48 -24 43 0 72 -12 72
-31 0 -3 -23 -9 -50 -13 -57 -8 -90 -33 -90 -71 0 -53 68 -83 123 -54 16 9 22
9 25 0 2 -6 17 -11 33 -11 l29 0 0 79 c0 88 -10 125 -37 140 -25 13 -81 19
-120 14z m85 -155 c-3 -25 -43 -37 -61 -19 -15 15 10 41 40 41 20 0 24 -4 21
-22z"/>
<path d="M600 395 c0 -78 3 -95 15 -95 12 0 15 17 15 95 0 78 -3 95 -15 95
-12 0 -15 -17 -15 -95z"/>
<path d="M1020 460 c0 -24 -4 -30 -22 -30 -31 0 -45 -11 -57 -44 -8 -21 -8
-35 2 -54 11 -23 19 -27 60 -28 l47 -1 0 94 c0 76 -3 93 -15 93 -10 0 -15 -10
-15 -30z m0 -91 c0 -36 -2 -40 -22 -37 -40 5 -32 78 8 78 10 0 14 -13 14 -41z"/>
<path d="M1270 460 c0 -24 -4 -30 -21 -30 -55 0 -85 -59 -55 -105 14 -21 23
-24 61 -23 l45 2 0 93 c0 76 -3 93 -15 93 -10 0 -15 -10 -15 -30z m0 -89 c0
-40 -16 -56 -40 -41 -17 10 -16 60 1 71 28 18 39 9 39 -30z"/>
<path d="M1580 395 c0 -78 3 -95 15 -95 12 0 15 17 15 95 0 78 -3 95 -15 95
-12 0 -15 -17 -15 -95z"/>
<path d="M0 390 c0 -83 1 -90 20 -90 16 0 20 7 20 35 0 33 2 35 35 35 24 0 35
5 35 15 0 10 -11 15 -35 15 -31 0 -35 3 -35 25 0 23 4 25 40 25 29 0 40 4 40
15 0 12 -13 15 -60 15 l-60 0 0 -90z"/>
<path d="M690 455 c0 -16 -6 -25 -15 -25 -8 0 -15 -4 -15 -9 0 -5 7 -11 15
-15 10 -4 15 -20 15 -50 0 -41 3 -46 25 -52 32 -8 46 4 22 17 -22 13 -25 89
-2 89 8 0 15 5 15 10 0 6 -7 10 -15 10 -9 0 -15 9 -15 25 0 16 -6 25 -15 25
-9 0 -15 -9 -15 -25z"/>
<path d="M170 421 c0 -5 12 -11 27 -13 42 -5 43 -36 1 -40 -29 -3 -33 -6 -33
-33 0 -29 2 -30 48 -31 l47 -1 0 52 c0 28 -5 56 -12 63 -14 14 -78 16 -78 3z
m60 -81 c0 -13 -7 -20 -20 -20 -19 0 -27 20 -13 33 13 14 33 6 33 -13z"/>
<path d="M326 417 c-25 -18 -25 -86 0 -104 25 -18 74 -17 74 2 0 9 -6 12 -15
9 -21 -8 -45 14 -45 40 0 27 18 46 42 46 10 0 18 5 18 10 0 14 -53 12 -74 -3z"/>
<path d="M440 376 c0 -63 10 -74 68 -73 l42 2 0 62 c0 49 -3 63 -15 63 -11 0
-15 -12 -15 -50 0 -47 -2 -50 -25 -50 -23 0 -25 3 -25 50 0 38 -4 50 -15 50
-11 0 -15 -13 -15 -54z"/>
<path d="M800 421 c0 -5 12 -11 27 -13 42 -5 43 -36 1 -40 -29 -3 -33 -6 -33
-33 0 -29 2 -30 48 -31 l47 -1 0 52 c0 28 -5 56 -12 63 -14 14 -78 16 -78 3z
m60 -81 c0 -13 -7 -20 -20 -20 -19 0 -27 20 -13 33 13 14 33 6 33 -13z"/>
<path d="M1359 414 c-20 -24 -16 -84 6 -100 21 -16 85 -19 85 -5 0 6 -15 11
-32 13 -22 2 -34 9 -36 21 -3 14 4 17 37 17 45 0 51 11 25 48 -18 26 -65 30
-85 6z m61 -8 c0 -2 3 -11 6 -20 5 -12 0 -16 -20 -16 -19 0 -26 5 -26 20 0 13
7 20 20 20 11 0 20 -2 20 -4z"/>
<path d="M1660 421 c0 -5 12 -11 27 -13 36 -4 45 -38 11 -38 -34 0 -50 -14
-46 -41 3 -22 8 -24 57 -25 l54 -2 -6 56 c-3 30 -12 59 -19 63 -18 12 -78 11
-78 0z m60 -81 c0 -11 -6 -20 -14 -20 -18 0 -29 16 -21 30 11 18 35 11 35 -10z"/>
<path d="M1170 167 c0 -28 -4 -33 -26 -35 -49 -4 -73 -47 -54 -96 9 -24 14
-26 60 -24 l50 2 0 93 c0 76 -3 93 -15 93 -10 0 -15 -10 -15 -33z m-2 -94 c-2
-30 -7 -38 -23 -38 -13 0 -21 8 -23 23 -5 34 5 52 28 52 18 0 21 -5 18 -37z"/>
<path d="M425 99 c-29 -94 -29 -89 -12 -89 8 0 19 11 25 25 16 35 69 35 82 0
5 -14 17 -25 26 -25 9 0 14 6 11 13 -2 6 -15 45 -28 85 -21 66 -25 72 -51 72
-25 0 -29 -5 -53 -81z m71 13 c6 -30 5 -32 -21 -32 -21 0 -26 4 -21 16 3 9 9
27 12 41 8 30 21 19 30 -25z"/>
<path d="M847 133 c-4 -3 -36 -5 -72 -5 l-65 0 0 -59 c0 -45 3 -59 14 -59 11
0 16 14 18 48 3 39 6 47 23 47 17 0 20 -8 23 -47 4 -66 30 -66 34 0 2 34 7 47
18 47 11 0 16 -13 18 -47 2 -34 7 -48 18 -48 10 0 14 14 14 55 0 43 -4 56 -19
64 -10 6 -21 8 -24 4z"/>
<path d="M963 132 c-36 -5 -27 -22 12 -22 46 0 47 -26 1 -34 -35 -7 -50 -25
-40 -51 5 -11 19 -14 55 -13 l50 2 -3 55 c-3 49 -6 55 -28 61 -14 3 -35 4 -47
2z m47 -87 c0 -8 -9 -15 -20 -15 -11 0 -20 7 -20 15 0 8 9 15 20 15 11 0 20
-7 20 -15z"/>
<path d="M1273 132 c-36 -5 -27 -22 12 -22 23 0 35 -5 35 -14 0 -8 -15 -17
-35 -20 -31 -6 -35 -11 -35 -36 0 -30 1 -30 50 -28 l51 2 -3 55 c-3 49 -6 55
-28 61 -14 3 -35 4 -47 2z m47 -87 c0 -8 -9 -15 -20 -15 -11 0 -20 7 -20 15 0
8 9 15 20 15 11 0 20 -7 20 -15z"/>
<path d="M600 68 c0 -45 3 -58 15 -58 11 0 15 12 15 44 0 36 4 46 20 51 32 10
23 23 -15 22 l-35 -1 0 -58z"/>
</g>
</svg>
