<?xml version="1.0" standalone="no"?>
<!DOCTYPE svg PUBLIC "-//W3C//DTD SVG 20010904//EN"
 "http://www.w3.org/TR/2001/REC-SVG-20010904/DTD/svg10.dtd">
<svg version="1.0" xmlns="http://www.w3.org/2000/svg"
 width="414.000000pt" height="150.000000pt" viewBox="0 0 414.000000 150.000000"
 preserveAspectRatio="xMidYMid meet">

<g transform="translate(0.000000,150.000000) scale(0.100000,-0.100000)"
fill="#000000" stroke="none">
<path d="M480 1357 l0 -107 105 0 c58 0 105 1 105 3 0 1 -47 49 -105 107
l-105 105 0 -108z"/>
<path d="M2095 934 c-16 -3 -40 -7 -53 -9 l-22 -5 2 -268 3 -267 109 -3 c193
-5 281 30 331 132 23 47 28 70 28 134 0 42 -6 97 -12 120 -17 59 -80 126 -139
147 -46 17 -189 27 -247 19z m212 -120 c43 -32 63 -80 63 -154 -1 -128 -49
-180 -169 -180 l-61 0 0 181 0 181 70 -4 c49 -2 77 -9 97 -24z"/>
<path d="M1072 658 l3 -273 58 -3 57 -3 0 111 0 110 115 0 115 0 0 50 0 50
-115 0 -115 0 0 65 0 65 135 0 135 0 0 50 0 50 -195 0 -195 0 2 -272z"/>
<path d="M1605 918 c-48 -144 -165 -517 -165 -526 0 -8 18 -12 54 -12 l54 0
24 73 25 72 100 3 101 3 24 -73 25 -73 56 -3 c32 -2 57 1 57 7 0 5 -32 107
-71 228 -38 120 -77 239 -85 266 l-16 47 -89 0 c-63 0 -91 -4 -94 -12z m131
-181 l32 -102 -65 -3 c-36 -2 -67 -1 -70 1 -2 3 11 52 28 111 18 58 35 103 38
100 3 -3 20 -51 37 -107z"/>
<path d="M2580 655 l0 -275 193 2 192 3 3 48 3 47 -135 0 -136 0 0 70 0 70
110 0 110 0 0 45 0 45 -110 0 -110 0 0 65 0 65 130 0 130 0 0 45 0 45 -190 0
-190 0 0 -275z"/>
<path d="M3040 655 l0 -276 58 3 57 3 5 175 5 175 115 -178 115 -177 60 2 60
3 3 273 2 272 -60 0 -60 0 -2 -177 -3 -177 -115 177 -115 177 -62 0 -63 0 0
-275z"/>
<path d="M3661 667 c-46 -144 -86 -268 -88 -274 -4 -10 11 -13 54 -13 l59 0
24 75 24 75 101 0 101 0 24 -75 24 -75 59 0 c43 0 58 3 55 13 -3 6 -43 130
-89 275 l-84 262 -90 0 -90 0 -84 -263z m209 79 c16 -54 30 -102 30 -107 0 -5
-29 -9 -65 -9 -40 0 -65 4 -65 11 0 17 62 211 66 207 2 -3 17 -48 34 -102z"/>
<path d="M875 700 c60 -60 111 -110 112 -110 2 0 3 50 3 110 l0 110 -112 0
-113 0 110 -110z"/>
<path d="M2648 199 c-10 -5 -18 -18 -18 -29 0 -10 -6 -21 -12 -24 -10 -5 -10
-7 0 -12 7 -3 12 -25 12 -55 0 -37 4 -49 15 -49 11 0 15 12 15 50 0 38 4 50
15 50 8 0 15 5 15 10 0 6 -7 10 -15 10 -8 0 -15 7 -15 15 0 8 7 15 15 15 8 0
15 7 15 15 0 17 -17 19 -42 4z"/>
<path d="M1550 115 c0 -69 3 -85 15 -85 12 0 15 16 15 85 0 69 -3 85 -15 85
-12 0 -15 -16 -15 -85z"/>
<path d="M1890 176 c0 -18 -7 -25 -30 -30 -39 -7 -56 -46 -37 -84 10 -23 19
-27 55 -28 l42 -1 0 84 c0 67 -3 83 -15 83 -9 0 -15 -9 -15 -24z m0 -80 c0
-39 -14 -53 -35 -36 -18 15 -19 42 -3 58 22 22 38 13 38 -22z"/>
<path d="M2090 175 c0 -18 -5 -25 -19 -25 -29 0 -51 -27 -51 -64 0 -42 15 -55
63 -53 l37 1 0 83 c0 67 -3 83 -15 83 -9 0 -15 -9 -15 -25z m-2 -82 c-3 -43
-31 -54 -36 -15 -5 32 4 52 23 52 13 0 15 -9 13 -37z"/>
<path d="M3640 185 c0 -8 7 -15 15 -15 8 0 15 7 15 15 0 8 -7 15 -15 15 -8 0
-15 -7 -15 -15z"/>
<path d="M4080 115 c0 -69 3 -85 15 -85 12 0 15 16 15 85 0 69 -3 85 -15 85
-12 0 -15 -16 -15 -85z"/>
<path d="M1080 110 c0 -64 3 -80 15 -80 10 0 15 11 15 35 0 33 2 35 35 35 19
0 35 5 35 10 0 6 -16 10 -35 10 -31 0 -35 3 -35 25 0 23 4 25 40 25 22 0 40 5
40 10 0 6 -25 10 -55 10 l-55 0 0 -80z"/>
<path d="M1620 171 c0 -11 -6 -22 -12 -25 -10 -5 -10 -7 0 -12 6 -3 12 -22 12
-43 0 -40 14 -61 42 -61 22 0 24 16 3 24 -9 3 -15 19 -15 41 0 24 4 35 15 35
8 0 15 5 15 10 0 6 -7 10 -15 10 -8 0 -15 9 -15 20 0 11 -7 20 -15 20 -8 0
-15 -9 -15 -19z"/>
<path d="M2350 109 l0 -82 46 6 c58 6 79 26 79 76 0 55 -26 81 -82 81 l-43 0
0 -81z m86 36 c28 -43 -8 -108 -52 -91 -14 6 -21 96 -7 109 14 15 43 6 59 -18z"/>
<path d="M3250 110 c0 -64 3 -80 15 -80 12 0 15 13 15 58 l0 57 38 -57 c51
-80 62 -76 62 22 0 47 -4 80 -10 80 -5 0 -10 -22 -10 -50 0 -27 -3 -50 -7 -50
-5 0 -21 23 -38 50 -18 30 -36 50 -47 50 -16 0 -18 -10 -18 -80z"/>
<path d="M1205 141 c-3 -5 7 -11 22 -13 37 -4 40 -24 5 -31 -63 -13 -46 -67
19 -64 l39 1 0 46 c0 25 -5 51 -12 58 -14 14 -64 16 -73 3z m55 -70 c0 -14
-18 -23 -30 -16 -6 4 -8 11 -5 16 8 12 35 12 35 0z"/>
<path d="M1326 128 c-9 -12 -16 -29 -16 -38 0 -30 30 -60 61 -60 17 0 29 5 29
13 0 8 -10 13 -21 13 -49 -2 -49 65 0 72 32 5 25 22 -8 22 -20 0 -35 -8 -45
-22z"/>
<path d="M1420 101 c0 -57 12 -70 63 -68 l37 1 0 58 c0 45 -3 58 -15 58 -11 0
-15 -12 -15 -44 0 -28 -5 -46 -14 -49 -21 -8 -26 2 -26 50 0 32 -4 43 -15 43
-11 0 -15 -12 -15 -49z"/>
<path d="M1705 141 c-3 -5 7 -11 22 -13 31 -4 44 -28 15 -28 -31 0 -54 -27
-42 -50 8 -14 20 -19 50 -17 l40 1 0 46 c0 25 -5 51 -12 58 -14 14 -64 16 -73
3z m55 -76 c0 -8 -6 -15 -14 -15 -17 0 -28 14 -19 24 12 12 33 6 33 -9z"/>
<path d="M2162 138 c-7 -7 -12 -29 -12 -50 0 -41 19 -58 64 -58 34 0 33 18 -1
22 -42 5 -41 28 1 28 29 0 36 4 36 19 0 41 -59 68 -88 39z m56 -25 c2 -8 -5
-13 -17 -13 -12 0 -21 6 -21 16 0 18 31 15 38 -3z"/>
<path d="M2512 138 c-17 -17 -15 -74 4 -92 17 -17 74 -22 74 -7 0 5 -12 11
-27 13 -42 5 -41 28 1 28 29 0 36 4 36 19 0 41 -59 68 -88 39z m56 -25 c2 -8
-5 -13 -17 -13 -12 0 -21 6 -21 16 0 18 31 15 38 -3z"/>
<path d="M2716 134 c-9 -8 -16 -28 -16 -44 0 -37 24 -60 61 -60 36 0 38 18 2
22 -42 5 -41 28 1 28 39 0 45 14 26 51 -13 23 -53 25 -74 3z m54 -19 c0 -8 -9
-15 -20 -15 -20 0 -26 11 -13 23 12 13 33 7 33 -8z"/>
<path d="M2820 89 c0 -46 3 -59 15 -59 11 0 15 12 15 44 0 31 5 46 16 50 26
10 34 -2 34 -50 0 -32 4 -44 15 -44 18 0 21 54 5 94 -8 22 -15 25 -55 24 l-45
-1 0 -58z"/>
<path d="M2962 138 c-21 -21 -13 -46 19 -57 34 -12 31 -31 -7 -31 -13 0 -24
-4 -24 -10 0 -16 66 -11 81 6 16 20 1 48 -30 52 -30 5 -27 32 4 32 14 0 25 5
25 10 0 14 -54 12 -68 -2z"/>
<path d="M3065 141 c-3 -5 7 -11 22 -13 37 -4 40 -24 5 -31 -63 -13 -46 -67
19 -64 l39 1 0 46 c0 25 -5 51 -12 58 -14 14 -64 16 -73 3z m55 -70 c0 -14
-18 -23 -30 -16 -6 4 -8 11 -5 16 8 12 35 12 35 0z"/>
<path d="M3420 141 c0 -5 12 -11 27 -13 34 -4 43 -28 10 -28 -13 0 -30 -7 -38
-16 -21 -26 1 -49 50 -51 l41 -2 0 40 c0 59 -14 79 -55 79 -19 0 -35 -4 -35
-9z m58 -73 c-7 -19 -38 -22 -38 -4 0 10 9 16 21 16 12 0 19 -5 17 -12z"/>
<path d="M3547 132 c-35 -39 -11 -102 38 -102 31 0 42 18 14 22 -49 7 -50 69
0 76 31 5 26 22 -7 22 -16 0 -36 -8 -45 -18z"/>
<path d="M3640 90 c0 -47 3 -60 15 -60 12 0 15 13 15 60 0 47 -3 60 -15 60
-12 0 -15 -13 -15 -60z"/>
<path d="M3706 128 c-9 -12 -16 -29 -16 -38 0 -49 61 -77 94 -44 19 18 21 75
4 92 -20 20 -65 14 -82 -10z m62 -32 c4 -36 -12 -54 -33 -36 -18 15 -20 41 -3
58 18 18 33 9 36 -22z"/>
<path d="M3830 88 c0 -44 4 -58 14 -58 11 0 16 14 18 48 2 34 7 47 18 47 11 0
16 -13 18 -47 2 -34 7 -48 18 -48 18 0 20 93 2 108 -7 6 -30 10 -50 9 l-38 -1
0 -58z"/>
<path d="M3960 141 c0 -5 12 -11 27 -13 37 -4 40 -24 3 -31 -63 -13 -46 -66
21 -65 39 0 39 1 39 40 0 58 -14 78 -55 78 -19 0 -35 -4 -35 -9z m58 -73 c-7
-19 -38 -22 -38 -4 0 10 9 16 21 16 12 0 19 -5 17 -12z"/>
</g>
</svg>
