<?xml version="1.0" standalone="no"?>
<!DOCTYPE svg PUBLIC "-//W3C//DTD SVG 20010904//EN"
 "http://www.w3.org/TR/2001/REC-SVG-20010904/DTD/svg10.dtd">
<svg version="1.0" xmlns="http://www.w3.org/2000/svg"
 width="224.000000pt" height="327.000000pt" viewBox="0 0 224.000000 327.000000"
 preserveAspectRatio="xMidYMid meet">

<g transform="translate(0.000000,327.000000) scale(0.100000,-0.100000)"
fill="#000000" stroke="none">
<path d="M0 1635 l0 -1635 1120 0 1120 0 0 1635 0 1635 -1120 0 -1120 0 0
-1635z m2188 3 l-3 -1573 -1062 -3 -1063 -2 0 1575 0 1575 1065 0 1065 0 -2
-1572z"/>
<path d="M330 2145 l0 -795 795 0 795 0 0 795 0 795 -795 0 -795 0 0 -795z
m1220 440 l-185 -185 -437 0 -438 0 0 185 0 185 622 0 623 0 -185 -185z m-260
-252 c0 -4 -82 -90 -182 -190 l-183 -183 -217 0 -218 0 0 190 0 190 400 0
c220 0 400 -3 400 -7z m-430 -436 c0 -1 -83 -85 -185 -187 l-185 -185 0 188 0
187 185 0 c102 0 185 -1 185 -3z"/>
<path d="M330 1020 c0 -73 3 -90 15 -90 10 0 15 11 15 35 0 33 2 35 35 35 24
0 35 5 35 15 0 10 -11 15 -35 15 -31 0 -35 3 -35 25 0 23 4 25 45 25 33 0 45
4 45 15 0 12 -13 15 -60 15 l-60 0 0 -90z"/>
<path d="M860 1032 c0 -47 5 -83 12 -90 17 -17 48 -15 48 3 0 8 -7 15 -15 15
-12 0 -15 15 -15 75 0 60 -3 75 -15 75 -12 0 -15 -15 -15 -78z"/>
<path d="M1240 1081 c0 -25 -3 -28 -25 -23 -37 7 -55 -14 -55 -63 0 -52 13
-64 68 -63 l42 0 0 89 c0 72 -3 89 -15 89 -10 0 -15 -10 -15 -29z m-5 -86 c0
-23 -4 -30 -20 -30 -21 0 -31 25 -21 51 11 28 41 12 41 -21z"/>
<path d="M1440 1081 c0 -25 -3 -28 -25 -23 -37 7 -55 -14 -55 -63 0 -52 13
-64 68 -63 l42 0 0 89 c0 72 -3 89 -15 89 -10 0 -15 -10 -15 -29z m-5 -86 c0
-23 -4 -30 -20 -30 -21 0 -31 25 -21 51 11 28 41 12 41 -21z"/>
<path d="M1700 1026 c0 -67 3 -85 16 -90 25 -10 34 -7 34 9 0 8 -4 15 -10 15
-6 0 -10 32 -10 75 0 60 -3 75 -15 75 -12 0 -15 -16 -15 -84z"/>
<path d="M948 1078 c-3 -55 5 -134 16 -140 18 -12 36 -9 36 7 0 8 -4 15 -10
15 -15 0 -12 67 3 74 10 5 10 7 0 12 -7 3 -13 17 -13 30 0 31 -29 33 -32 2z"/>
<path d="M467 1053 c-15 -15 -5 -23 28 -23 44 0 46 -18 4 -22 -39 -4 -59 -30
-43 -55 8 -13 26 -19 58 -20 l46 -2 0 53 c0 28 -5 57 -12 64 -13 13 -70 17
-81 5z m63 -78 c0 -9 -9 -15 -25 -15 -24 0 -32 10 -18 23 12 13 43 7 43 -8z"/>
<path d="M606 1038 c-41 -58 6 -126 68 -102 23 9 1 34 -23 27 -21 -5 -35 20
-25 49 4 13 12 18 25 15 24 -6 46 18 23 27 -30 11 -53 6 -68 -16z"/>
<path d="M720 1006 c0 -62 10 -74 63 -74 l37 0 0 64 c0 49 -3 64 -14 64 -11 0
-16 -14 -18 -47 -2 -35 -7 -48 -18 -48 -11 0 -16 13 -18 48 -2 33 -7 47 -18
47 -10 0 -14 -14 -14 -54z"/>
<path d="M1037 1053 c-15 -14 -6 -23 22 -23 41 0 49 -18 10 -22 -39 -4 -59
-30 -43 -55 8 -13 26 -19 58 -20 l46 -2 0 54 c0 43 -4 56 -19 65 -22 11 -64
13 -74 3z m61 -75 c-5 -15 -48 -24 -48 -10 0 14 12 22 33 22 10 0 17 -5 15
-12z"/>
<path d="M1517 1042 c-49 -54 13 -140 73 -102 19 12 6 24 -27 25 -14 0 -28 6
-30 13 -3 8 8 12 36 12 33 0 41 4 41 18 0 24 -31 52 -57 52 -11 0 -27 -8 -36
-18z m58 -22 c4 -6 -5 -10 -20 -10 -15 0 -24 4 -20 10 3 6 12 10 20 10 8 0 17
-4 20 -10z"/>
<path d="M1787 1053 c-15 -14 -6 -23 22 -23 41 0 49 -18 10 -22 -39 -4 -59
-30 -43 -55 8 -13 26 -19 58 -20 l46 -2 0 54 c0 43 -4 56 -19 65 -22 11 -64
13 -74 3z m61 -75 c-5 -15 -48 -24 -48 -10 0 14 12 22 33 22 10 0 17 -5 15
-12z"/>
<path d="M1376 804 c-8 -21 -8 -24 4 -24 5 0 14 9 20 20 8 16 8 20 -4 20 -7 0
-17 -7 -20 -16z"/>
<path d="M330 720 c0 -73 3 -90 15 -90 10 0 15 11 15 35 0 33 2 35 35 35 24 0
35 5 35 15 0 10 -11 15 -35 15 -31 0 -35 3 -35 25 0 23 4 25 45 25 33 0 45 4
45 15 0 12 -13 15 -60 15 l-60 0 0 -90z"/>
<path d="M1183 720 c-29 -82 -30 -90 -13 -90 10 0 20 7 24 15 7 20 63 19 74
-1 5 -9 16 -14 24 -13 12 3 10 18 -16 89 -18 48 -38 86 -46 88 -11 2 -25 -25
-47 -88z m57 11 c0 -5 3 -16 6 -25 4 -12 0 -16 -16 -16 -16 0 -20 4 -16 16 3
9 6 20 6 25 0 5 5 9 10 9 6 0 10 -4 10 -9z"/>
<path d="M470 706 c0 -62 10 -74 63 -74 l37 0 0 64 c0 49 -3 64 -14 64 -11 0
-16 -14 -18 -47 -2 -35 -7 -48 -18 -48 -11 0 -16 13 -18 48 -2 33 -7 47 -18
47 -10 0 -14 -14 -14 -54z"/>
<path d="M616 738 c-32 -46 -7 -108 43 -108 16 0 34 7 41 15 13 16 11 17 -34
19 -48 2 -45 26 3 26 34 0 41 3 41 19 0 48 -67 68 -94 29z m64 -18 c0 -5 -12
-10 -26 -10 -14 0 -23 4 -19 10 3 6 15 10 26 10 10 0 19 -4 19 -10z"/>
<path d="M750 694 c0 -49 3 -64 14 -64 11 0 16 14 18 47 3 40 7 48 26 53 39 9
30 25 -15 27 l-43 2 0 -65z"/>
<path d="M850 745 c0 -9 9 -15 25 -15 14 0 25 -3 25 -6 0 -3 -11 -19 -25 -36
-39 -46 -33 -58 25 -58 38 0 50 4 50 15 0 10 -10 15 -31 15 l-31 0 31 39 c17
21 31 44 31 50 0 7 -20 11 -50 11 -38 0 -50 -4 -50 -15z"/>
<path d="M987 753 c-15 -14 -6 -23 22 -23 41 0 49 -18 10 -22 -39 -4 -59 -30
-43 -55 8 -13 26 -19 58 -20 l46 -2 0 54 c0 43 -4 56 -19 65 -22 11 -64 13
-74 3z m61 -75 c-5 -15 -48 -24 -48 -10 0 14 12 22 33 22 10 0 17 -5 15 -12z"/>
<path d="M1336 738 c-32 -46 -7 -108 43 -108 16 0 34 7 41 15 13 16 11 17 -34
19 -48 2 -45 26 3 26 34 0 41 3 41 19 0 48 -67 68 -94 29z m64 -18 c0 -5 -12
-10 -26 -10 -14 0 -23 4 -19 10 3 6 15 10 26 10 10 0 19 -4 19 -10z"/>
<path d="M1470 694 c0 -49 3 -64 14 -64 11 0 16 14 18 47 3 40 7 48 26 53 39
9 30 25 -15 27 l-43 2 0 -65z"/>
<path d="M1587 742 c-49 -54 13 -140 73 -102 19 12 6 24 -27 25 -14 0 -28 6
-30 13 -3 8 8 12 36 12 33 0 41 4 41 18 0 24 -31 52 -57 52 -11 0 -27 -8 -36
-18z m58 -22 c4 -6 -5 -10 -20 -10 -15 0 -24 4 -20 10 3 6 12 10 20 10 8 0 17
-4 20 -10z"/>
<path d="M1717 753 c-15 -14 -6 -23 22 -23 41 0 49 -18 10 -22 -39 -4 -59 -30
-43 -55 8 -13 26 -19 58 -20 l46 -2 0 54 c0 43 -4 56 -19 65 -22 11 -64 13
-74 3z m61 -75 c-5 -15 -48 -24 -48 -10 0 14 12 22 33 22 10 0 17 -5 15 -12z"/>
<path d="M343 420 c-29 -82 -30 -90 -13 -90 10 0 20 7 24 15 7 20 63 19 74 -1
5 -9 16 -14 24 -13 12 3 10 18 -16 89 -18 48 -38 86 -46 88 -11 2 -25 -25 -47
-88z m57 11 c0 -5 3 -16 6 -25 4 -12 0 -16 -16 -16 -16 0 -20 4 -16 16 3 9 6
20 6 25 0 5 5 9 10 9 6 0 10 -4 10 -9z"/>
<path d="M1100 495 c0 -8 7 -15 15 -15 8 0 15 7 15 15 0 8 -7 15 -15 15 -8 0
-15 -7 -15 -15z"/>
<path d="M1009 473 c-3 -57 3 -118 13 -130 14 -18 38 -16 38 2 0 8 -4 15 -10
15 -15 0 -12 68 3 73 10 4 10 7 0 18 -7 7 -13 21 -13 31 0 30 -30 21 -31 -9z"/>
<path d="M480 394 c0 -49 3 -64 14 -64 11 0 16 14 18 47 3 40 7 48 26 53 39 9
30 25 -15 27 l-43 1 0 -64z"/>
<path d="M601 447 c-16 -16 -14 -82 4 -97 8 -7 24 -10 36 -7 15 4 19 1 17 -11
-2 -9 -12 -17 -23 -17 -11 -1 -26 -5 -34 -9 -11 -7 -11 -10 0 -17 22 -14 56
-10 73 7 12 11 16 35 16 89 l0 73 -39 0 c-21 0 -43 -4 -50 -11z m54 -47 c0
-27 -22 -39 -31 -16 -8 22 3 49 19 43 6 -2 12 -14 12 -27z"/>
<path d="M736 438 c-32 -46 -7 -108 43 -108 16 0 34 7 41 15 13 16 11 17 -34
19 -48 2 -45 26 3 26 34 0 41 3 41 19 0 48 -67 68 -94 29z m64 -18 c0 -5 -12
-10 -26 -10 -14 0 -23 4 -19 10 3 6 15 10 26 10 10 0 19 -4 19 -10z"/>
<path d="M870 394 c0 -49 3 -64 14 -64 11 0 16 14 18 48 3 39 6 47 23 47 17 0
20 -8 23 -47 2 -34 7 -48 18 -48 19 0 20 103 1 118 -7 6 -32 11 -55 10 l-42 0
0 -64z"/>
<path d="M1100 395 c0 -51 3 -65 15 -65 12 0 15 14 15 65 0 51 -3 65 -15 65
-12 0 -15 -14 -15 -65z"/>
<path d="M1170 394 c0 -49 3 -64 14 -64 11 0 16 14 18 48 3 39 6 47 23 47 17
0 20 -8 23 -47 2 -34 7 -48 18 -48 19 0 20 103 1 118 -7 6 -32 11 -55 10 l-42
0 0 -64z"/>
<path d="M1317 453 c-15 -14 -6 -23 22 -23 41 0 49 -18 10 -22 -39 -4 -59 -30
-43 -55 8 -13 26 -19 58 -20 l46 -2 0 54 c0 43 -4 56 -19 65 -22 11 -64 13
-74 3z m61 -75 c-5 -15 -48 -24 -48 -10 0 14 12 22 33 22 10 0 17 -5 15 -12z"/>
</g>
</svg>
