<?xml version="1.0" standalone="no"?>
<!DOCTYPE svg PUBLIC "-//W3C//DTD SVG 20010904//EN"
 "http://www.w3.org/TR/2001/REC-SVG-20010904/DTD/svg10.dtd">
<svg version="1.0" xmlns="http://www.w3.org/2000/svg"
 width="1310.000000pt" height="565.000000pt" viewBox="0 0 1310.000000 565.000000"
 preserveAspectRatio="xMidYMid meet">

<g transform="translate(0.000000,565.000000) scale(0.100000,-0.100000)"
fill="#000000" stroke="none">
<path d="M240 3223 l0 -2296 604 599 604 599 1 1093 1 1092 835 0 835 0 6 27
c10 40 -13 255 -36 346 -51 194 -159 380 -304 522 -146 143 -301 235 -490 289
l-88 26 -984 0 -984 0 0 -2297z"/>
<path d="M9930 3990 l0 -560 115 0 115 0 0 560 0 560 -115 0 -115 0 0 -560z"/>
<path d="M12350 4375 l0 -175 -80 0 c-149 0 -245 -34 -318 -114 -54 -59 -80
-119 -93 -216 -28 -210 56 -391 202 -434 104 -31 201 -17 268 41 22 18 41 33
44 33 2 0 7 -18 11 -40 l6 -40 95 0 95 0 0 560 0 560 -115 0 -115 0 0 -175z
m0 -539 l0 -194 -27 -18 c-42 -27 -130 -30 -170 -5 -54 34 -67 64 -71 166 -8
180 43 244 196 245 l72 0 0 -194z"/>
<path d="M6597 4453 c-4 -3 -7 -235 -7 -515 l0 -508 115 0 115 0 0 205 0 205
210 0 210 0 0 90 0 90 -210 0 -210 0 0 125 0 125 245 0 245 0 0 95 0 95 -353
0 c-195 0 -357 -3 -360 -7z"/>
<path d="M10480 4450 c0 -15 -29 -211 -35 -237 -5 -21 -11 -23 -65 -23 l-60 0
0 -85 0 -85 59 0 59 0 4 -207 c4 -226 11 -259 66 -316 55 -58 96 -72 217 -72
61 0 118 3 128 7 14 6 17 21 17 90 l0 83 -76 0 c-70 0 -77 2 -99 27 -30 34
-37 94 -33 258 l3 125 98 3 97 3 0 84 0 85 -100 0 -100 0 0 135 0 135 -90 0
c-54 0 -90 -4 -90 -10z"/>
<path d="M7555 4190 c-102 -18 -95 -11 -95 -101 l0 -81 48 8 c26 5 98 9 159 9
109 0 113 -1 139 -27 21 -20 27 -37 28 -70 l1 -43 -45 -2 c-273 -15 -383 -85
-384 -243 0 -140 89 -220 245 -220 72 0 135 22 176 62 l32 31 6 -29 c4 -16 8
-35 11 -41 2 -9 30 -13 94 -13 l92 0 -5 283 c-4 309 -8 331 -63 396 -54 63
-117 84 -264 87 -69 2 -147 -1 -175 -6z m285 -504 l0 -74 -46 -22 c-82 -40
-174 -5 -174 66 0 67 57 100 178 103 l42 1 0 -74z"/>
<path d="M8525 4186 c-114 -28 -196 -90 -236 -181 -74 -168 -31 -419 88 -510
89 -68 255 -94 406 -64 l57 12 0 89 c0 82 -2 89 -17 83 -10 -4 -63 -9 -118
-12 -91 -4 -104 -2 -139 19 -60 35 -81 85 -81 188 0 107 21 153 86 188 40 22
54 23 157 20 l112 -3 0 86 0 86 -46 7 c-73 10 -214 6 -269 -8z"/>
<path d="M11155 4190 c-102 -18 -95 -11 -95 -101 l0 -81 48 8 c26 5 98 9 160
9 l114 0 29 -33 c24 -27 29 -41 27 -70 -3 -35 -5 -37 -43 -40 -188 -12 -283
-40 -339 -102 -59 -65 -68 -179 -19 -261 64 -111 282 -134 385 -41 l37 34 6
-29 c4 -15 8 -34 11 -40 2 -9 30 -13 94 -13 l91 0 -4 283 c-4 311 -8 336 -63
397 -57 63 -118 83 -264 86 -69 2 -147 -1 -175 -6z m285 -505 l0 -76 -42 -19
c-100 -45 -190 -1 -174 85 11 55 64 80 179 84 l37 1 0 -75z"/>
<path d="M9020 3910 c0 -231 3 -288 16 -327 23 -66 48 -98 102 -130 42 -25 57
-28 137 -28 95 0 148 18 202 68 24 22 25 21 37 -35 l6 -28 90 0 90 0 0 380 0
380 -110 0 -110 0 0 -258 c0 -289 3 -275 -73 -307 -54 -22 -101 -19 -134 9
l-28 24 -3 266 -3 266 -109 0 -110 0 0 -280z"/>
<path d="M8410 2500 l0 -560 110 0 110 0 0 560 0 560 -110 0 -110 0 0 -560z"/>
<path d="M7995 3031 c-53 -22 -81 -108 -53 -161 40 -76 212 -79 247 -4 16 36
14 101 -5 129 -8 13 -29 28 -46 34 -36 13 -114 13 -143 2z"/>
<path d="M8892 3020 c-74 -46 -67 -162 13 -196 69 -28 171 -10 195 36 6 12 12
41 12 65 0 24 -6 53 -12 65 -26 49 -147 67 -208 30z"/>
<path d="M6600 2455 l0 -515 105 0 105 0 2 347 3 348 121 -270 122 -270 94 -3
94 -3 119 273 c65 150 122 277 127 282 4 6 8 -150 8 -347 l0 -357 105 0 105 0
0 515 0 515 -138 0 -137 0 -134 -312 c-73 -172 -136 -316 -140 -321 -4 -4 -70
135 -147 310 l-140 318 -137 3 -137 3 0 -516z"/>
<path d="M9415 2958 c-2 -7 -11 -68 -21 -135 l-17 -123 -64 0 -63 0 0 -85 0
-84 63 -3 62 -3 5 -215 c5 -197 7 -218 27 -256 30 -55 73 -90 135 -109 53 -15
171 -20 227 -9 l31 7 0 87 0 87 -55 -5 c-32 -3 -68 1 -85 8 -53 22 -60 50 -60
240 l0 170 100 0 100 0 0 85 0 85 -100 0 -100 0 0 135 0 135 -90 0 c-64 0 -92
-4 -95 -12z"/>
<path d="M10105 2703 c-16 -2 -47 -9 -67 -14 l-38 -10 0 -81 0 -80 28 6 c15 4
75 10 133 13 157 8 198 -11 214 -99 8 -43 9 -43 -124 -53 -210 -16 -310 -91
-311 -233 0 -99 54 -179 143 -208 92 -31 241 -5 286 50 20 24 28 20 35 -19 l7
-35 89 0 90 0 0 273 c0 315 -6 353 -69 416 -56 56 -113 73 -261 76 -69 2 -138
1 -155 -2z m275 -502 c0 -63 -3 -72 -26 -90 -34 -27 -106 -37 -145 -21 -36 15
-49 37 -49 83 0 62 56 92 178 96 l42 1 0 -69z"/>
<path d="M11160 2701 c-48 -15 -88 -41 -113 -73 l-25 -32 -7 40 c-11 67 -7 64
-105 64 l-90 0 0 -380 0 -380 110 0 110 0 0 249 0 250 33 24 c45 34 90 47 158
47 l59 0 0 100 0 100 -52 -1 c-29 0 -64 -4 -78 -8z"/>
<path d="M7960 2320 l0 -380 110 0 110 0 0 380 0 380 -110 0 -110 0 0 -380z"/>
<path d="M8870 2320 l0 -380 110 0 110 0 0 380 0 380 -110 0 -110 0 0 -380z"/>
<path d="M4132 2083 l3 -448 55 -3 c128 -8 337 33 480 93 239 101 455 305 574
543 29 58 86 221 86 246 0 14 -56 16 -600 16 l-600 0 2 -447z"/>
<path d="M9335 1537 c-17 -8 -36 -26 -43 -41 -17 -38 -15 -97 4 -125 47 -66
191 -66 238 0 27 39 21 103 -13 141 -25 29 -35 32 -92 35 -40 2 -76 -2 -94
-10z"/>
<path d="M6985 1484 c-278 -43 -425 -225 -425 -524 0 -341 180 -519 526 -520
80 0 174 11 227 26 15 5 17 18 17 96 l0 91 -42 -8 c-159 -26 -272 -23 -344 11
-96 45 -136 124 -142 277 -6 151 13 223 79 289 67 67 124 82 288 75 69 -2 134
-8 144 -12 15 -6 17 1 17 84 0 91 0 92 -27 102 -29 12 -266 21 -318 13z"/>
<path d="M11664 1348 l-19 -133 -63 -3 -62 -3 0 -84 0 -85 59 0 59 0 4 -207
c4 -226 11 -259 66 -316 61 -64 169 -90 306 -73 l56 7 0 87 0 87 -76 0 c-70 0
-77 2 -99 27 -29 33 -38 105 -33 268 l3 115 98 3 97 3 0 84 0 85 -100 0 -100
0 0 135 0 135 -89 0 -88 0 -19 -132z"/>
<path d="M7672 1199 c-85 -27 -160 -99 -193 -184 -20 -51 -23 -78 -23 -185 0
-157 20 -217 99 -296 65 -65 146 -94 265 -94 119 0 200 29 265 94 79 78 99
139 99 296 0 106 -4 134 -22 181 -32 81 -88 140 -164 174 -87 39 -232 45 -326
14z m231 -169 c41 -33 62 -102 61 -205 -1 -159 -38 -215 -144 -215 -107 0
-144 57 -144 220 0 163 37 220 143 220 43 0 65 -5 84 -20z"/>
<path d="M8730 1211 c-39 -12 -93 -41 -117 -64 -24 -22 -25 -21 -37 36 l-6 27
-90 0 -90 0 0 -380 0 -380 110 0 110 0 0 258 c0 255 0 259 23 280 45 43 123
55 177 27 44 -23 50 -63 50 -327 l0 -238 111 0 110 0 -3 288 c-3 242 -7 294
-21 333 -22 57 -79 114 -136 134 -45 16 -148 19 -191 6z"/>
<path d="M10987 1201 c-27 -11 -64 -31 -82 -46 l-35 -26 -6 41 -7 40 -93 0
-94 0 0 -380 0 -380 110 0 110 0 0 258 c0 289 -3 275 73 307 55 23 111 19 144
-9 l28 -24 3 -266 3 -266 110 0 110 0 -3 298 -3 297 -30 55 c-44 81 -101 113
-208 117 -64 3 -93 -1 -130 -16z"/>
<path d="M12375 1213 c-16 -2 -47 -9 -67 -14 l-38 -10 0 -80 0 -81 43 9 c23 4
93 8 155 8 l114 0 29 -33 c24 -27 29 -41 27 -70 l-3 -37 -90 -7 c-156 -13
-234 -39 -287 -95 -36 -38 -50 -77 -50 -146 0 -127 78 -206 215 -215 92 -5
148 10 197 54 l39 36 6 -29 c4 -15 8 -34 11 -40 2 -9 30 -13 94 -13 l91 0 -3
288 c-3 317 -6 333 -70 399 -56 58 -117 76 -258 79 -69 1 -138 0 -155 -3z
m265 -509 l0 -75 -46 -21 c-108 -47 -206 21 -160 110 21 40 66 56 169 61 l37
1 0 -76z"/>
<path d="M9308 828 c-5 -426 -8 -449 -78 -558 -18 -28 -31 -52 -29 -54 26 -21
130 -86 138 -86 16 0 89 97 121 159 63 125 63 132 68 544 l3 377 -109 0 -110
0 -4 -382z"/>
<path d="M9760 932 c0 -303 5 -343 55 -408 45 -59 96 -79 200 -79 94 0 148 18
202 67 l22 21 6 -29 c4 -16 8 -35 11 -41 2 -9 30 -13 94 -13 l90 0 0 380 0
380 -110 0 -110 0 0 -258 c0 -289 3 -275 -73 -307 -58 -24 -104 -20 -138 14
l-29 29 0 261 0 261 -110 0 -110 0 0 -278z"/>
</g>
</svg>
