<?xml version="1.0" standalone="no"?>
<!DOCTYPE svg PUBLIC "-//W3C//DTD SVG 20010904//EN"
 "http://www.w3.org/TR/2001/REC-SVG-20010904/DTD/svg10.dtd">
<svg version="1.0" xmlns="http://www.w3.org/2000/svg"
 width="94.000000pt" height="35.000000pt" viewBox="0 0 94.000000 35.000000"
 preserveAspectRatio="xMidYMid meet">

<g transform="translate(0.000000,35.000000) scale(0.100000,-0.100000)"
fill="#000000" stroke="none">
<path d="M100 328 c0 -45 13 -78 31 -78 28 0 24 42 -6 70 -19 18 -25 20 -25 8z"/>
<path d="M218 295 c-14 -15 5 -45 29 -45 20 0 24 4 21 23 -3 21 -36 36 -50 22z"/>
<path d="M170 222 c0 -16 9 -37 20 -47 20 -18 20 -17 20 28 0 40 -3 47 -20 47
-15 0 -20 -7 -20 -28z"/>
<path d="M50 220 c0 -16 7 -20 30 -20 23 0 30 4 30 20 0 16 -7 20 -30 20 -23
0 -30 -4 -30 -20z"/>
<path d="M240 165 c0 -30 5 -55 10 -55 6 0 10 11 10 24 0 19 6 26 28 29 l27 4
-27 2 c-21 1 -28 6 -28 20 0 14 8 21 28 24 22 3 20 4 -10 6 l-38 1 0 -55z"/>
<path d="M340 174 c-11 -25 -20 -50 -20 -55 0 -16 18 -10 22 8 4 23 49 25 56
1 4 -17 22 -26 22 -10 0 23 -36 102 -47 102 -8 0 -23 -21 -33 -46z m43 6 c4
-15 0 -20 -14 -20 -17 0 -18 3 -9 20 6 11 12 20 14 20 2 0 6 -9 9 -20z"/>
<path d="M450 165 l0 -55 33 0 c54 0 82 44 57 91 -8 14 -21 19 -50 19 l-40 0
0 -55z m68 33 c18 -18 14 -56 -7 -68 -34 -18 -41 -11 -41 35 0 37 3 45 18 45
10 0 23 -5 30 -12z"/>
<path d="M580 165 l0 -55 38 1 c36 1 36 2 7 8 -39 8 -48 41 -11 41 14 0 26 5
26 10 0 6 -12 10 -26 10 -35 0 -26 23 12 31 27 6 27 7 -8 8 l-38 1 0 -55z"/>
<path d="M670 165 c0 -65 17 -74 22 -12 l3 42 25 -42 c35 -61 50 -56 48 15
l-1 57 -6 -48 -6 -47 -28 45 c-40 62 -57 59 -57 -10z"/>
<path d="M831 203 c-5 -10 -16 -35 -24 -55 -14 -33 -14 -38 -1 -38 7 0 14 6
14 14 0 22 48 27 55 5 4 -11 11 -19 16 -19 12 0 12 5 -8 61 -18 51 -36 61 -52
32z m29 -23 c0 -11 -6 -20 -14 -20 -9 0 -12 7 -9 20 3 11 9 20 14 20 5 0 9 -9
9 -20z"/>
<path d="M265 40 c-3 -5 -1 -10 4 -10 6 0 11 5 11 10 0 6 -2 10 -4 10 -3 0 -8
-4 -11 -10z"/>
<path d="M755 40 c-3 -5 -1 -10 4 -10 6 0 11 5 11 10 0 6 -2 10 -4 10 -3 0 -8
-4 -11 -10z"/>
</g>
</svg>
