<?xml version="1.0" standalone="no"?>
<!DOCTYPE svg PUBLIC "-//W3C//DTD SVG 20010904//EN"
 "http://www.w3.org/TR/2001/REC-SVG-20010904/DTD/svg10.dtd">
<svg version="1.0" xmlns="http://www.w3.org/2000/svg"
 width="225.000000pt" height="225.000000pt" viewBox="0 0 225.000000 225.000000"
 preserveAspectRatio="xMidYMid meet">
<metadata>
Created by potrace 1.16, written by Peter Selinger 2001-2019
</metadata>
<g transform="translate(0.000000,225.000000) scale(0.100000,-0.100000)"
fill="#000000" stroke="none">
<path d="M520 1340 l0 -550 605 0 605 0 0 550 0 550 -80 0 -80 0 0 -465 0
-465 -445 0 -445 0 0 465 0 465 -80 0 -80 0 0 -550z"/>
<path d="M512 534 c3 -102 5 -107 31 -130 41 -35 128 -34 162 1 23 23 25 31
25 130 l0 105 -25 0 c-25 0 -25 0 -25 -93 0 -101 -12 -127 -58 -127 -42 0 -52
25 -52 126 l0 94 -31 0 -31 0 4 -106z"/>
<path d="M780 510 l0 -130 28 0 c27 0 27 1 24 58 -2 33 -2 72 0 88 3 27 7 23
62 -58 51 -76 63 -88 88 -88 l28 0 0 130 0 130 -25 0 c-24 0 -24 -2 -27 -87
l-3 -88 -57 88 c-51 78 -61 87 -88 87 l-30 0 0 -130z"/>
<path d="M1060 510 l0 -130 64 0 c36 0 76 4 89 9 61 23 88 93 67 170 -16 60
-54 81 -147 81 l-73 0 0 -130z m145 65 c56 -55 16 -160 -58 -153 l-32 3 -3 74
c-2 41 -1 80 2 88 9 22 64 15 91 -12z"/>
<path d="M1330 510 l0 -130 90 0 c83 0 90 2 90 20 0 16 -8 19 -62 22 -63 3
-63 3 -66 36 l-3 32 55 0 c51 0 56 2 56 23 0 20 -5 22 -52 22 -52 0 -53 0 -56
33 l-3 32 65 0 c59 0 66 2 66 20 0 19 -7 20 -90 20 l-90 0 0 -130z"/>
<path d="M1550 510 l0 -130 29 0 c29 0 30 2 33 53 l3 52 53 0 c47 0 52 2 52
23 0 20 -5 22 -55 22 l-55 0 0 35 0 35 65 0 c58 0 65 2 65 20 0 19 -7 20 -95
20 l-95 0 0 -130z"/>
</g>
</svg>
